<?xml version="1.0" encoding="UTF-8"?>
<svg version="1.1" xmlns="http://www.w3.org/2000/svg" width="300" height="272">
<path d="M0 0 C2.0276983 -0.0095929 4.05433083 -0.04061367 6.08178711 -0.07226562 C35.41691781 -0.31048309 64.00967711 12.01349897 84.87670898 32.49023438 C104.8608368 52.88532369 114.3846086 77.65749093 114.44580078 106.11865234 C114.1221964 132.64586033 102.55258986 156.50339202 84.12670898 175.24023438 C72.31555545 186.70070475 59.3883422 193.69953443 44.12670898 200.24023438 C78.77670898 200.57023438 113.42670898 200.90023437 149.12670898 201.24023438 C149.12670898 223.68023437 149.12670898 246.12023437 149.12670898 269.24023438 C50.12670898 269.24023438 -48.87329102 269.24023438 -150.87329102 269.24023438 C-150.87329102 246.80023438 -150.87329102 224.36023438 -150.87329102 201.24023438 C-113.91329102 200.91023437 -76.95329102 200.58023438 -38.87329102 200.24023438 C-46.79329102 196.77523437 -46.79329102 196.77523437 -54.87329102 193.24023438 C-81.07963871 178.02364539 -99.36250921 155.56984339 -107.18188477 126.29101562 C-111.04324294 109.25304536 -110.68601497 89.7636169 -104.87329102 73.24023438 C-104.51106445 72.13292969 -104.14883789 71.025625 -103.77563477 69.88476562 C-98.58717312 55.16360496 -90.80512947 44.15294785 -79.87329102 33.24023438 C-78.99801758 32.35980469 -78.12274414 31.479375 -77.22094727 30.57226562 C-76.4462207 29.80269531 -75.67149414 29.033125 -74.87329102 28.24023438 C-74.02637695 27.3971875 -74.02637695 27.3971875 -73.16235352 26.53710938 C-53.81201228 8.54946822 -25.9356659 0.07381193 0 0 Z " fill="#043F7F" transform="translate(150.873291015625,2.759765625)"/>
<path d="M0 0 C2.0276983 -0.0095929 4.05433083 -0.04061367 6.08178711 -0.07226562 C35.41691781 -0.31048309 64.00967711 12.01349897 84.87670898 32.49023438 C104.8608368 52.88532369 114.3846086 77.65749093 114.44580078 106.11865234 C114.1221964 132.64586033 102.55258986 156.50339202 84.12670898 175.24023438 C72.31555545 186.70070475 59.3883422 193.69953443 44.12670898 200.24023438 C78.77670898 200.57023438 113.42670898 200.90023437 149.12670898 201.24023438 C149.12670898 223.68023437 149.12670898 246.12023437 149.12670898 269.24023438 C50.12670898 269.24023438 -48.87329102 269.24023438 -150.87329102 269.24023438 C-150.87329102 246.80023438 -150.87329102 224.36023438 -150.87329102 201.24023438 C-113.91329102 200.91023437 -76.95329102 200.58023438 -38.87329102 200.24023438 C-46.79329102 196.77523437 -46.79329102 196.77523437 -54.87329102 193.24023438 C-81.07963871 178.02364539 -99.36250921 155.56984339 -107.18188477 126.29101562 C-111.04324294 109.25304536 -110.68601497 89.7636169 -104.87329102 73.24023438 C-104.51106445 72.13292969 -104.14883789 71.025625 -103.77563477 69.88476562 C-98.58717312 55.16360496 -90.80512947 44.15294785 -79.87329102 33.24023438 C-78.99801758 32.35980469 -78.12274414 31.479375 -77.22094727 30.57226562 C-76.4462207 29.80269531 -75.67149414 29.033125 -74.87329102 28.24023438 C-74.02637695 27.3971875 -74.02637695 27.3971875 -73.16235352 26.53710938 C-53.81201228 8.54946822 -25.9356659 0.07381193 0 0 Z M-31.87329102 7.24023438 C-32.82896973 7.55371826 -32.82896973 7.55371826 -33.80395508 7.87353516 C-48.58417312 12.88919125 -62.35643584 20.70696155 -73.87329102 31.24023438 C-74.72407227 32.00980469 -75.57485352 32.779375 -76.45141602 33.57226562 C-91.2153739 47.58896797 -100.6141228 65.48443151 -104.87329102 85.24023438 C-105.04836182 86.00819336 -105.22343262 86.77615234 -105.40380859 87.56738281 C-106.3161153 92.76131616 -106.10053346 98.04289348 -106.12329102 103.30273438 C-106.14391602 104.46740234 -106.16454102 105.63207031 -106.18579102 106.83203125 C-106.22105077 114.74343881 -105.20426478 121.68492597 -102.87329102 129.24023438 C-102.536604 130.33428589 -102.536604 130.33428589 -102.19311523 131.45043945 C-97.2680569 146.51126038 -90.1024987 158.9743898 -78.87329102 170.24023438 C-78.02895508 171.08972656 -77.18461914 171.93921875 -76.31469727 172.81445312 C-75.10620117 174.01521484 -75.10620117 174.01521484 -73.87329102 175.24023438 C-72.9180957 176.1915625 -72.9180957 176.1915625 -71.94360352 177.16210938 C-51.13723554 196.71508169 -22.25453061 205.03794813 5.72045898 204.54492188 C36.82963811 203.40563293 64.05575962 191.19356348 85.75170898 168.85351562 C101.20867617 151.8457672 111.62780936 128.02467623 111.37670898 104.92773438 C111.36921631 104.00911621 111.36172363 103.09049805 111.35400391 102.14404297 C110.93123937 75.29967578 99.89380197 51.49525002 80.78979492 32.81030273 C56.53983781 10.08900771 26.04351566 2.17232031 -6.39672852 2.89257812 C-15.27717329 3.20236108 -23.45114262 4.42638295 -31.87329102 7.24023438 Z " fill="#F6F7F9" transform="translate(150.873291015625,2.759765625)"/>
<path d="M0 0 C19.87138862 15.66654042 35.68803832 38.18909414 38.82421875 63.86181641 C41.636925 91.06349852 35.17679277 116.6582589 17.9609375 138.29931641 C10.55726544 147.00804252 2.91938111 154.5039747 -6.7265625 160.67431641 C-7.79003906 161.40714844 -7.79003906 161.40714844 -8.875 162.15478516 C-32.19260468 177.4134984 -63.75221975 182.69967426 -90.98950195 177.54077148 C-94.6201321 176.74316606 -98.17496657 175.76898639 -101.7265625 174.67431641 C-102.7460498 174.36083252 -102.7460498 174.36083252 -103.78613281 174.04101562 C-118.60130216 169.31163947 -131.97896896 161.86608661 -143.7265625 151.67431641 C-144.78859526 150.84038768 -145.85103417 150.00697567 -146.9140625 149.17431641 C-163.35215475 134.56267885 -176.33842161 110.72556288 -177.94970703 88.61181641 C-178.97623883 59.2823365 -172.79550058 35.78619427 -153.2890625 13.42431641 C-113.63446122 -28.89671496 -46.4006605 -35.62720398 0 0 Z M-125.7265625 36.67431641 C-126.47421875 37.46451172 -127.221875 38.25470703 -127.9921875 39.06884766 C-140.64982481 53.63479288 -143.73453945 70.47176584 -142.91748047 89.19970703 C-141.64898951 105.64142613 -131.02936365 120.37151525 -119.7265625 131.67431641 C-121.0465625 134.31431641 -122.3665625 136.95431641 -123.7265625 139.67431641 C-125.2115625 138.68431641 -125.2115625 138.68431641 -126.7265625 137.67431641 C-129.92224297 137.78083909 -131.01613571 138.92440236 -133.4765625 141.04931641 C-136.05195819 143.47772318 -136.05195819 143.47772318 -135.7265625 146.67431641 C-133.7465625 145.68431641 -133.7465625 145.68431641 -131.7265625 144.67431641 C-131.0665625 146.65431641 -130.4065625 148.63431641 -129.7265625 150.67431641 C-129.0665625 150.67431641 -128.4065625 150.67431641 -127.7265625 150.67431641 C-127.7265625 149.35431641 -127.7265625 148.03431641 -127.7265625 146.67431641 C-127.3965625 147.00431641 -127.0665625 147.33431641 -126.7265625 147.67431641 C-126.7884375 148.88087891 -126.7884375 148.88087891 -126.8515625 150.11181641 C-126.8103125 150.95744141 -126.7690625 151.80306641 -126.7265625 152.67431641 C-123.77278752 155.04411654 -123.77278752 155.04411654 -119.7265625 154.67431641 C-119.3965625 155.66431641 -119.0665625 156.65431641 -118.7265625 157.67431641 C-118.0665625 157.67431641 -117.4065625 157.67431641 -116.7265625 157.67431641 C-115.4065625 155.36431641 -114.0865625 153.05431641 -112.7265625 150.67431641 C-111.7365625 150.67431641 -110.7465625 150.67431641 -109.7265625 150.67431641 C-110.4690625 152.06650391 -110.4690625 152.06650391 -111.2265625 153.48681641 C-112.93946102 156.53959156 -112.93946102 156.53959156 -112.7265625 159.67431641 C-112.0665625 159.67431641 -111.4065625 159.67431641 -110.7265625 159.67431641 C-110.3965625 158.35431641 -110.0665625 157.03431641 -109.7265625 155.67431641 C-108.4065625 156.00431641 -107.0865625 156.33431641 -105.7265625 156.67431641 C-106.2215625 159.64431641 -106.2215625 159.64431641 -106.7265625 162.67431641 C-103.82055989 163.93096618 -101.93051666 164.67431641 -98.7265625 164.67431641 C-98.3965625 163.35431641 -98.0665625 162.03431641 -97.7265625 160.67431641 C-97.0665625 160.67431641 -96.4065625 160.67431641 -95.7265625 160.67431641 C-95.7265625 161.33431641 -95.7265625 161.99431641 -95.7265625 162.67431641 C-95.0665625 162.67431641 -94.4065625 162.67431641 -93.7265625 162.67431641 C-93.7265625 163.99431641 -93.7265625 165.31431641 -93.7265625 166.67431641 C-90.84444948 167.63502075 -89.02806206 167.78013524 -86.0390625 167.73681641 C-85.23082031 167.72779297 -84.42257813 167.71876953 -83.58984375 167.70947266 C-82.97496094 167.69787109 -82.36007813 167.68626953 -81.7265625 167.67431641 C-80.95078862 164.28030569 -80.4440781 161.15829065 -80.7265625 157.67431641 C-81.7165625 156.68431641 -81.7165625 156.68431641 -82.7265625 155.67431641 C-81.4065625 156.00431641 -80.0865625 156.33431641 -78.7265625 156.67431641 C-79.0565625 160.63431641 -79.3865625 164.59431641 -79.7265625 168.67431641 C-78.7365625 168.67431641 -77.7465625 168.67431641 -76.7265625 168.67431641 C-76.3965625 167.35431641 -76.0665625 166.03431641 -75.7265625 164.67431641 C-75.2934375 165.33431641 -74.8603125 165.99431641 -74.4140625 166.67431641 C-73.8571875 167.33431641 -73.3003125 167.99431641 -72.7265625 168.67431641 C-71.7365625 168.67431641 -70.7465625 168.67431641 -69.7265625 168.67431641 C-69.3965625 165.70431641 -69.0665625 162.73431641 -68.7265625 159.67431641 C-66.39322917 159.67431641 -64.05989583 159.67431641 -61.7265625 159.67431641 C-62.7165625 161.06650391 -62.7165625 161.06650391 -63.7265625 162.48681641 C-65.99230804 165.47068197 -65.99230804 165.47068197 -65.7265625 168.67431641 C-56.9618023 169.16011851 -56.9618023 169.16011851 -48.7265625 166.67431641 C-46.82714126 164.17879503 -46.82714126 164.17879503 -45.7265625 161.67431641 C-45.3965625 162.66431641 -45.0665625 163.65431641 -44.7265625 164.67431641 C-44.0665625 164.67431641 -43.4065625 164.67431641 -42.7265625 164.67431641 C-42.7265625 163.02431641 -42.7265625 161.37431641 -42.7265625 159.67431641 C-41.7365625 160.00431641 -40.7465625 160.33431641 -39.7265625 160.67431641 C-39.3965625 161.66431641 -39.0665625 162.65431641 -38.7265625 163.67431641 C-38.0665625 163.67431641 -37.4065625 163.67431641 -36.7265625 163.67431641 C-37.27762159 159.7250596 -38.11591621 156.32511467 -39.7265625 152.67431641 C-40.7165625 152.67431641 -41.7065625 152.67431641 -42.7265625 152.67431641 C-42.7265625 152.01431641 -42.7265625 151.35431641 -42.7265625 150.67431641 C-43.7165625 150.34431641 -44.7065625 150.01431641 -45.7265625 149.67431641 C-45.7265625 148.02431641 -45.7265625 146.37431641 -45.7265625 144.67431641 C-44.85515625 144.56216797 -43.98375 144.45001953 -43.0859375 144.33447266 C-33.26839807 142.405212 -25.05504999 136.19542815 -17.7265625 129.67431641 C-17.02789062 129.06974609 -16.32921875 128.46517578 -15.609375 127.84228516 C-4.47278961 117.5506936 3.83472156 101.57111092 4.609375 86.26416016 C5.01888142 65.1858296 -1.28770031 48.67661138 -15.96875 33.33056641 C-31.39755309 18.55938444 -51.25939325 11.69797128 -72.42602539 12.10620117 C-93.43584048 13.02847928 -111.32999651 21.38341829 -125.7265625 36.67431641 Z " fill="#063F7F" transform="translate(222.7265625,28.32568359375)"/>
<path d="M0 0 C13.82242413 11.81974336 23.629618 26.5234359 25.54736328 44.94335938 C26.86454706 62.62811088 22.3256241 78.40079505 11.14453125 92.40234375 C1.97185667 102.90118815 -8.22394373 111.43585065 -21.6875 115.6875 C-22.6775 115.6875 -23.6675 115.6875 -24.6875 115.6875 C-24.6875 117.3375 -24.6875 118.9875 -24.6875 120.6875 C-23.6975 121.0175 -22.7075 121.3475 -21.6875 121.6875 C-21.6875 122.3475 -21.6875 123.0075 -21.6875 123.6875 C-20.6975 123.6875 -19.7075 123.6875 -18.6875 123.6875 C-15.6875 130.1875 -15.6875 130.1875 -15.6875 134.6875 C-16.3475 134.6875 -17.0075 134.6875 -17.6875 134.6875 C-18.0175 133.6975 -18.3475 132.7075 -18.6875 131.6875 C-19.6775 131.3575 -20.6675 131.0275 -21.6875 130.6875 C-21.6875 132.3375 -21.6875 133.9875 -21.6875 135.6875 C-22.3475 135.6875 -23.0075 135.6875 -23.6875 135.6875 C-24.0175 134.6975 -24.3475 133.7075 -24.6875 132.6875 C-25.244375 133.863125 -25.244375 133.863125 -25.8125 135.0625 C-28.26230014 138.49222019 -29.55716401 138.876184 -33.6875 139.6875 C-37.36124168 139.83424726 -41.01334472 139.80517757 -44.6875 139.6875 C-43.92346585 136.21596619 -42.60563089 133.68979182 -40.6875 130.6875 C-44.27077753 129.68532936 -44.27077753 129.68532936 -47.6875 130.6875 C-48.15401207 132.81326782 -48.15401207 132.81326782 -48.3125 135.25 C-48.38726562 136.07628906 -48.46203125 136.90257812 -48.5390625 137.75390625 C-48.61253906 138.71103516 -48.61253906 138.71103516 -48.6875 139.6875 C-50.5625 139.375 -50.5625 139.375 -52.6875 138.6875 C-53.3475 137.6975 -54.0075 136.7075 -54.6875 135.6875 C-55.0175 137.0075 -55.3475 138.3275 -55.6875 139.6875 C-56.6775 139.6875 -57.6675 139.6875 -58.6875 139.6875 C-58.3575 135.7275 -58.0275 131.7675 -57.6875 127.6875 C-58.6775 127.6875 -59.6675 127.6875 -60.6875 127.6875 C-60.5225 128.409375 -60.3575 129.13125 -60.1875 129.875 C-59.70901458 132.56648048 -59.53608033 134.96194596 -59.6875 137.6875 C-60.6875 138.6875 -60.6875 138.6875 -62.6484375 138.8203125 C-63.44507813 138.81773437 -64.24171875 138.81515625 -65.0625 138.8125 C-65.85398438 138.81507813 -66.64546875 138.81765625 -67.4609375 138.8203125 C-69.6875 138.6875 -69.6875 138.6875 -72.6875 137.6875 C-72.6875 136.3675 -72.6875 135.0475 -72.6875 133.6875 C-73.3475 133.6875 -74.0075 133.6875 -74.6875 133.6875 C-74.6875 133.0275 -74.6875 132.3675 -74.6875 131.6875 C-75.3475 131.6875 -76.0075 131.6875 -76.6875 131.6875 C-77.0175 133.0075 -77.3475 134.3275 -77.6875 135.6875 C-83.4375 134.8125 -83.4375 134.8125 -85.6875 133.6875 C-85.3575 131.3775 -85.0275 129.0675 -84.6875 126.6875 C-86.0075 126.6875 -87.3275 126.6875 -88.6875 126.6875 C-89.0175 128.0075 -89.3475 129.3275 -89.6875 130.6875 C-90.3475 130.6875 -91.0075 130.6875 -91.6875 130.6875 C-90.98808404 127.54012818 -89.92671302 124.66161124 -88.6875 121.6875 C-89.6775 121.6875 -90.6675 121.6875 -91.6875 121.6875 C-93.0075 123.9975 -94.3275 126.3075 -95.6875 128.6875 C-96.3475 128.6875 -97.0075 128.6875 -97.6875 128.6875 C-98.0175 127.6975 -98.3475 126.7075 -98.6875 125.6875 C-99.656875 125.543125 -100.62625 125.39875 -101.625 125.25 C-104.6875 124.6875 -104.6875 124.6875 -105.6875 123.6875 C-105.6875 122.02083333 -105.6875 120.35416667 -105.6875 118.6875 C-106.0175 118.3575 -106.3475 118.0275 -106.6875 117.6875 C-106.6875 119.0075 -106.6875 120.3275 -106.6875 121.6875 C-107.6775 121.3575 -108.6675 121.0275 -109.6875 120.6875 C-110.0175 119.0375 -110.3475 117.3875 -110.6875 115.6875 C-112.6675 116.6775 -112.6675 116.6775 -114.6875 117.6875 C-114.21503358 113.43530225 -111.91477623 111.31435275 -108.6875 108.6875 C-106.20564024 108.82932056 -104.89503096 109.58373452 -102.6875 110.6875 C-101.3675 107.7175 -100.0475 104.7475 -98.6875 101.6875 C-99.368125 101.0275 -100.04875 100.3675 -100.75 99.6875 C-101.72995685 98.68827433 -102.70904313 97.68819452 -103.6875 96.6875 C-104.21859375 96.17574219 -104.7496875 95.66398437 -105.296875 95.13671875 C-109.47210425 90.81784629 -112.25234979 86.13490684 -114.9375 80.8125 C-115.26661377 80.16498779 -115.59572754 79.51747559 -115.93481445 78.8503418 C-120.16122724 70.15030077 -122.22013682 61.99462503 -122.0625 52.3125 C-122.05089844 51.39130371 -122.03929688 50.47010742 -122.02734375 49.52099609 C-121.57007809 30.44024149 -113.2261752 15.6333801 -99.6875 2.6875 C-98.53507812 1.57955078 -98.53507812 1.57955078 -97.359375 0.44921875 C-70.03346507 -23.48418876 -27.79829708 -21.81446746 0 0 Z M-102.6875 9.6875 C-103.30238281 10.30496094 -103.91726562 10.92242187 -104.55078125 11.55859375 C-116.01488506 23.91138778 -119.59201047 39.86655288 -119 56.20703125 C-118.04730123 72.47436274 -110.20749281 88.01430688 -98.22558594 99.03173828 C-79.64455059 115.22411874 -59.47587785 117.70736165 -35.6875 116.6875 C-20.51452992 115.2899896 -6.05163677 106.54426484 4.3125 95.6875 C5.02792969 94.97980469 5.74335938 94.27210938 6.48046875 93.54296875 C19.16395061 80.33596606 22.80242113 63.62179477 22.5234375 45.91015625 C22.00766129 31.57348789 14.62240484 19.18863282 5.3125 8.6875 C4.51585937 7.74970703 4.51585937 7.74970703 3.703125 6.79296875 C-6.56513352 -4.46653255 -23.31472977 -12.34280019 -38.50976562 -13.53369141 C-64.4087741 -14.5249401 -84.44019102 -9.0690362 -102.6875 9.6875 Z " fill="#0D4281" transform="translate(201.6875,57.3125)"/>
<path d="M0 0 C2.45808815 1.67950819 2.93413565 2.65995615 3.50390625 5.6015625 C3.65881726 13.59497063 2.13612814 17.94396832 -3 24 C-3.61488281 24.78503906 -4.22976562 25.57007812 -4.86328125 26.37890625 C-10.10350846 32.75329085 -15.58376807 36.95208056 -23.6875 38.875 C-28.27707889 40.43372491 -30.23437014 43.1481711 -33 47 C-33.9590625 48.299375 -33.9590625 48.299375 -34.9375 49.625 C-36.23594812 52.52741345 -35.93870223 54.01322018 -35 57 C-31.59679066 57.67673447 -31.59679066 57.67673447 -28 58 C-27.34 57.34 -26.68 56.68 -26 56 C-26 56.66 -26 57.32 -26 58 C-15.94302416 53.93852899 -8.69247879 45.82753031 -1.3125 38.125 C4.80224595 32.02121238 9.74300335 28.72890609 18.5625 28.6875 C20.37626016 28.76675294 22.18974917 28.86216364 24 29 C24.71484375 31.26171875 24.71484375 31.26171875 25 34 C23.56640625 36.01953125 23.56640625 36.01953125 21.5625 37.8125 C20.90378906 38.41707031 20.24507813 39.02164063 19.56640625 39.64453125 C19.04949219 40.09183594 18.53257812 40.53914063 18 41 C17.34 40.67 16.68 40.34 16 40 C16.33 38.68 16.66 37.36 17 36 C11.54046338 35.16007129 8.75934849 37.12161479 4.45483398 40.08789062 C0.13228 43.45479692 -3.50223426 47.45646762 -7.25 51.4375 C-13.57010206 57.99218559 -19.06409389 63.09135903 -27.53125 66.6484375 C-30.5786551 68.31679535 -31.56271149 69.87065277 -33 73 C-33.25136033 76.20916171 -33.25136033 76.20916171 -33 79 C-30.22758371 79.79833977 -28.61002944 80.25012339 -25.89453125 79.13671875 C-19.56226013 74.72907788 -14.3213546 69.56695558 -9 64 C5.56009665 48.76789888 5.56009665 48.76789888 12.29101562 47.60375977 C14.5 47.5625 14.5 47.5625 18 48 C19 49 19 49 19.3125 51.875 C19 55 19 55 17 56.875 C16.34 57.24625 15.68 57.6175 15 58 C14.67 57.67 14.34 57.34 14 57 C10.33597635 56.38932939 8.18856759 56.32752097 4.921875 58.17578125 C-3.11163728 64.22981299 -10.22935458 71.68071321 -16.75 79.3125 C-21.4253974 84.7727363 -26.62979606 90.46487299 -34.0625 91.375 C-37 91 -37 91 -38.875 89.5625 C-40.61971135 85.58843525 -40.82804242 82.26217184 -40 78 C-38.2860929 74.14495098 -36.24218482 70.57014547 -34 67 C-34.78761719 66.86722656 -35.57523438 66.73445313 -36.38671875 66.59765625 C-39.23469449 65.94632548 -40.17464166 65.20964431 -42 63 C-45.48558623 64.34787381 -45.48558623 64.34787381 -48.80859375 66.04296875 C-53.27711225 67.99446078 -58.24534866 67.63849946 -63 67 C-65.86852219 65.62559955 -67.61739624 64.16600342 -70 62 C-69.01 61.505 -69.01 61.505 -68 61 C-67.34 61.33 -66.68 61.66 -66 62 C-58.52275471 63.16048957 -52.51719187 61.98273611 -46.296875 57.625 C-42.93264998 53.78017141 -42.28162433 49.70879031 -41.41748047 44.83422852 C-39.27012594 32.94699596 -33.10639299 21.90812417 -25 13 C-24.36191406 12.29359375 -23.72382813 11.5871875 -23.06640625 10.859375 C-16.7330431 4.19267694 -9.87163544 -2.33648176 0 0 Z " fill="#EFF3F5" transform="translate(165,63)"/>
<path d="M0 0 C2.0276983 -0.0095929 4.05433083 -0.04061367 6.08178711 -0.07226562 C35.41691781 -0.31048309 64.00967711 12.01349897 84.87670898 32.49023438 C104.8608368 52.88532369 114.3846086 77.65749093 114.44580078 106.11865234 C114.1221964 132.64586033 102.55258986 156.50339202 84.12670898 175.24023438 C66.34234094 192.49656945 43.27111354 204.32700383 18.18920898 204.42773438 C16.16795589 204.38072849 14.14676122 204.32427353 12.12670898 204.24023438 C12.12670898 203.91023437 12.12670898 203.58023438 12.12670898 203.24023438 C12.71871094 203.16095703 13.31071289 203.08167969 13.9206543 203 C44.60996277 198.71887103 71.87714574 186.32482647 91.18920898 161.17773438 C102.66468689 144.81031968 110.59537496 125.04126666 110.37670898 104.92773438 C110.36921631 104.00911621 110.36172363 103.09049805 110.35400391 102.14404297 C109.94003264 75.85802416 99.461947 53.29713065 81.47045898 34.45898438 C57.19706397 11.32786677 26.35948418 3.16530498 -6.39672852 3.89257812 C-15.27717329 4.20236108 -23.45114262 5.42638295 -31.87329102 8.24023438 C-32.51041016 8.44922363 -33.1475293 8.65821289 -33.80395508 8.87353516 C-48.59422134 13.89260111 -62.33674765 21.7156685 -73.87329102 32.24023438 C-74.6505957 32.93632813 -75.42790039 33.63242187 -76.22875977 34.34960938 C-90.65476297 47.95623547 -99.73259536 66.03395677 -103.87329102 85.24023438 C-104.04836182 86.00819336 -104.22343262 86.77615234 -104.40380859 87.56738281 C-105.3161153 92.76131616 -105.10053346 98.04289348 -105.12329102 103.30273438 C-105.14391602 104.46740234 -105.16454102 105.63207031 -105.18579102 106.83203125 C-105.22105077 114.74343881 -104.20426478 121.68492597 -101.87329102 129.24023438 C-101.64883301 129.96960205 -101.424375 130.69896973 -101.19311523 131.45043945 C-96.2680569 146.51126038 -89.1024987 158.9743898 -77.87329102 170.24023438 C-76.59131836 171.52994141 -76.59131836 171.52994141 -75.28344727 172.84570312 C-74.09041992 174.03099609 -74.09041992 174.03099609 -72.87329102 175.24023438 C-72.30868164 175.80226562 -71.74407227 176.36429688 -71.16235352 176.94335938 C-55.33008636 191.66067814 -33.04006424 200.23562885 -11.87329102 203.24023438 C-11.87329102 203.57023438 -11.87329102 203.90023437 -11.87329102 204.24023438 C-17.98409048 204.39074668 -23.48033075 204.03260991 -29.43579102 202.67773438 C-30.20737549 202.50282471 -30.97895996 202.32791504 -31.77392578 202.14770508 C-57.61548333 195.87948305 -80.34570184 178.41131536 -94.67553711 156.21289062 C-107.87823909 134.46853026 -113.23532995 107.27987664 -107.6953125 82.22167969 C-106.88679685 79.17667106 -105.91857262 76.21157586 -104.87329102 73.24023438 C-104.51106445 72.13292969 -104.14883789 71.025625 -103.77563477 69.88476562 C-98.58717312 55.16360496 -90.80512947 44.15294785 -79.87329102 33.24023438 C-78.56038086 31.91958984 -78.56038086 31.91958984 -77.22094727 30.57226562 C-76.4462207 29.80269531 -75.67149414 29.033125 -74.87329102 28.24023438 C-74.30868164 27.67820312 -73.74407227 27.11617187 -73.16235352 26.53710938 C-53.81201228 8.54946822 -25.9356659 0.07381193 0 0 Z " fill="#CCCED2" transform="translate(150.873291015625,2.759765625)"/>
<path d="M0 0 C13.82242413 11.81974336 23.629618 26.5234359 25.54736328 44.94335938 C26.86454706 62.62811088 22.3256241 78.40079505 11.14453125 92.40234375 C-1.70774506 107.11278049 -18.53511491 118.46389408 -38.55541992 119.89208984 C-41.70623407 119.99120527 -44.84771115 120.00955818 -48 120 C-49.05123047 120.01611328 -50.10246094 120.03222656 -51.18554688 120.04882812 C-68.6771029 120.05957893 -84.15334817 113.55883496 -97.6875 102.6875 C-98.53570312 102.03523438 -99.38390625 101.38296875 -100.2578125 100.7109375 C-106.83659285 95.23214615 -111.18155468 88.24775439 -115 80.6875 C-115.48786987 79.7279541 -115.48786987 79.7279541 -115.9855957 78.74902344 C-120.18990086 70.08931207 -122.21935074 61.94634356 -122.0625 52.3125 C-122.05089844 51.39130371 -122.03929688 50.47010742 -122.02734375 49.52099609 C-121.57007809 30.44024149 -113.2261752 15.6333801 -99.6875 2.6875 C-98.53507812 1.57955078 -98.53507812 1.57955078 -97.359375 0.44921875 C-70.03346507 -23.48418876 -27.79829708 -21.81446746 0 0 Z M-102.6875 9.6875 C-103.30238281 10.30496094 -103.91726562 10.92242187 -104.55078125 11.55859375 C-116.01488506 23.91138778 -119.59201047 39.86655288 -119 56.20703125 C-118.04730123 72.47436274 -110.20749281 88.01430688 -98.22558594 99.03173828 C-79.64455059 115.22411874 -59.47587785 117.70736165 -35.6875 116.6875 C-20.51452992 115.2899896 -6.05163677 106.54426484 4.3125 95.6875 C5.02792969 94.97980469 5.74335938 94.27210938 6.48046875 93.54296875 C19.16395061 80.33596606 22.80242113 63.62179477 22.5234375 45.91015625 C22.00766129 31.57348789 14.62240484 19.18863282 5.3125 8.6875 C4.51585937 7.74970703 4.51585937 7.74970703 3.703125 6.79296875 C-6.56513352 -4.46653255 -23.31472977 -12.34280019 -38.50976562 -13.53369141 C-64.4087741 -14.5249401 -84.44019102 -9.0690362 -102.6875 9.6875 Z " fill="#E2E9EF" transform="translate(201.6875,57.3125)"/>
<path d="M0 0 C0.495 3.465 0.495 3.465 1 7 C0.01 7.33 -0.98 7.66 -2 8 C-2 8.66 -2 9.32 -2 10 C-1.34 10.66 -0.68 11.32 0 12 C-0.928125 12 -1.85625 12 -2.8125 12 C-12.99302006 13.4942479 -21.5296391 24.21657881 -28.25 31.25 C-38.6877885 42.16512639 -38.6877885 42.16512639 -45 45 C-49.27906977 44.72093023 -49.27906977 44.72093023 -51 43 C-51.5631397 39.05802207 -51.04403378 37.08806756 -49.25 33.5 C-46.76096724 30.25800093 -44.1935568 29.04396701 -40.47265625 27.4453125 C-33.33405631 23.9885459 -28.54498951 19.12566331 -23.1875 13.375 C-8.26869732 -2.42010653 -8.26869732 -2.42010653 0 0 Z " fill="#0A4080" transform="translate(182,99)"/>
<path d="M0 0 C17.3905565 -1.36100007 33.1127945 4.63472208 46.6875 15.3125 C60.50992413 27.13224336 70.317118 41.8359359 72.23486328 60.25585938 C73.55204706 77.94061088 69.0131241 93.71329505 57.83203125 107.71484375 C47.05884139 120.04560322 35.55009948 127.76394363 20 133 C19.26394531 133.24878906 18.52789062 133.49757812 17.76953125 133.75390625 C8.58116525 136.29536919 -2.7602579 135.81884687 -12 134 C-12 133.67 -12 133.34 -12 133 C-10.23849609 132.96132813 -10.23849609 132.96132813 -8.44140625 132.921875 C14.37074435 132.21511379 34.73488264 127.06302878 51 110 C51.64195312 109.36578125 52.28390625 108.7315625 52.9453125 108.078125 C65.19746703 95.24253454 68.48007835 78.30941364 68.2109375 61.22265625 C67.61483751 44.65328435 57.98160404 30.64469524 46.5 19.375 C33.33004254 7.91225925 16.68166399 4.13615283 0 1 C0 0.67 0 0.34 0 0 Z " fill="#E2E9F0" transform="translate(155,42)"/>
<path d="M0 0 C1.46726798 3.81489674 0.43336419 6.29011622 -1 10 C0.65 10 2.3 10 4 10 C4.33 10.99 4.66 11.98 5 13 C5.5775 13.12375 6.155 13.2475 6.75 13.375 C10.08793754 14.30220487 11.67792371 16.49930246 14 19 C14.598125 19.53625 15.19625 20.0725 15.8125 20.625 C17 22 17 22 17 25 C20.0745356 24.2236068 20.0745356 24.2236068 22 22 C22 22.66 22 23.32 22 24 C23.32 24.33 24.64 24.66 26 25 C25.01 26.32 24.02 27.64 23 29 C23.44472656 29.61488281 23.88945312 30.22976562 24.34765625 30.86328125 C24.91355469 31.67152344 25.47945312 32.47976562 26.0625 33.3125 C26.63097656 34.11300781 27.19945312 34.91351563 27.78515625 35.73828125 C28.18605469 36.48464844 28.58695313 37.23101562 29 38 C28.67 38.99 28.34 39.98 28 41 C26.35 40.34 24.7 39.68 23 39 C21.35 40.98 19.7 42.96 18 45 C16.0319891 42.55410566 14.07830364 40.10278401 12.17578125 37.60546875 C5.55694534 29.01624564 -1.62761267 22.45302536 -11 17 C-10.24396484 16.31744141 -10.24396484 16.31744141 -9.47265625 15.62109375 C-8.98667969 15.08613281 -8.50070313 14.55117188 -8 14 C-8.30271961 12.65938457 -8.63837971 11.32594105 -9 10 C-8.375 7.875 -8.375 7.875 -7 6 C-5.33333333 5.33333333 -3.66666667 4.66666667 -2 4 C-0.65589738 1.98264795 -0.65589738 1.98264795 0 0 Z " fill="#0A4180" transform="translate(202,34)"/>
<path d="M0 0 C-0.33 1.98 -0.66 3.96 -1 6 C1.475 7.98 1.475 7.98 4 10 C4.33 9.34 4.66 8.68 5 8 C5 9.65 5 11.3 5 13 C6.65 12.01 8.3 11.02 10 10 C10.12375 10.969375 10.2475 11.93875 10.375 12.9375 C10.58125 13.948125 10.7875 14.95875 11 16 C11.66 16.33 12.32 16.66 13 17 C13 15.68 13 14.36 13 13 C13.66 13.33 14.32 13.66 15 14 C15 15.65 15 17.3 15 19 C17.31 19.33 19.62 19.66 22 20 C22 21.32 22 22.64 22 24 C22.66 24 23.32 24 24 24 C24.268125 23.236875 24.53625 22.47375 24.8125 21.6875 C25.94424112 19.12619116 26.91223401 17.80307062 29 16 C29.66 16.33 30.32 16.66 31 17 C30.44271087 20.34373475 29.64826111 23.03312999 28 26 C28.99 26 29.98 26 31 26 C30.45276317 29.37462715 29.9451 31.08235 28 34 C25.85546875 34.93359375 25.85546875 34.93359375 23 35 C20.2555441 33.80022175 17.86546906 32.58426506 15.3125 31.0625 C14.25119873 30.44713379 14.25119873 30.44713379 13.16845703 29.81933594 C7.34758788 26.37062031 2.10777347 22.4364661 -3 18 C-4.14488009 17.08214304 -5.29057847 16.16530477 -6.4375 15.25 C-8.69762927 13.26549625 -10.51804997 11.61520593 -12 9 C-11.67 8.01 -11.34 7.02 -11 6 C-10.34 5.67 -9.68 5.34 -9 5 C-9 3.68 -9 2.36 -9 1 C-5.846632 0.29925156 -3.27275026 0 0 0 Z " fill="#073F7E" transform="translate(82,162)"/>
<path d="M0 0 C1 1 1 1 1.3125 3.875 C1 7 1 7 -1 8.875 C-1.66 9.24625 -2.32 9.6175 -3 10 C-3.495 9.505 -3.495 9.505 -4 9 C-7.66402365 8.38932939 -9.81143241 8.32752097 -13.078125 10.17578125 C-21.11163728 16.22981299 -28.22935458 23.68071321 -34.75 31.3125 C-39.4253974 36.7727363 -44.62979606 42.46487299 -52.0625 43.375 C-55 43 -55 43 -56.875 41.5625 C-58.83977248 37.08718491 -58.94150081 32.48759282 -57.203125 27.89453125 C-55.46322025 24.64893971 -54.56109304 23.18703101 -51 22 C-51 24.97 -51 27.94 -51 31 C-48.22758371 31.79833977 -46.61002944 32.25012339 -43.89453125 31.13671875 C-37.56226013 26.72907788 -32.3213546 21.56695558 -27 16 C-10.45648604 -1.30706076 -10.45648604 -1.30706076 0 0 Z " fill="#F1F5F7" transform="translate(183,111)"/>
<path d="M0 0 C1.85602244 3.71204487 1.44875601 7.9487305 1 12 C-1.22366224 16.44732447 -3.99271235 19.10584781 -8 22 C-8.66 21.67 -9.32 21.34 -10 21 C-9.67 20.67 -9.34 20.34 -9 20 C-8.95907063 17.66702567 -8.95758277 15.33294775 -9 13 C-14.43629023 13.43490322 -17.7128221 14.6101384 -22 18 C-24.28462727 20.67741618 -24.28462727 20.67741618 -23.66015625 22.91015625 C-23.46292969 23.62042969 -23.26570312 24.33070312 -23.0625 25.0625 C-22.50542622 28.66570063 -22.82234283 29.74106647 -24.9296875 32.8125 C-27.20716857 35.30992472 -29.5299682 37.69367401 -32 40 C-33.90914026 34.57402242 -31.2099833 29.99952994 -29 25 C-23.70610361 14.37116927 -13.99087333 -3.84063189 0 0 Z " fill="#0C4180" transform="translate(160,70)"/>
<path d="M0 0 C1 1 1 1 1.0625 4.375 C1.041875 5.57125 1.02125 6.7675 1 8 C1 8.99 1 9.98 1 11 C0.875 13.5 0.875 13.5 0 16 C-3.14262644 18.02025986 -5.84766565 18.96735693 -9.5 19.75 C-13.58400232 21.20857226 -15.05962942 22.8893495 -17.640625 26.24609375 C-19.00642109 28.00828468 -20.29338862 29.56169608 -22 31 C-22.99 31 -23.98 31 -25 31 C-25 29.35 -25 27.7 -25 26 C-24.01 26 -23.02 26 -22 26 C-19.07865692 23.74761994 -16.84854168 21.19005479 -15 18 C-14.94280967 15.53264577 -15.3468441 13.45020365 -15.83984375 11.0390625 C-16 9 -16 9 -13.9375 6.1875 C-12.968125 5.465625 -11.99875 4.74375 -11 4 C-10.01 3.236875 -9.02 2.47375 -8 1.6875 C-4.92830468 -0.04032862 -3.44572603 -0.49224658 0 0 Z " fill="#E9EEF3" transform="translate(151,82)"/>
<path d="M0 0 C0 0.99 0 1.98 0 3 C-6.75 7 -6.75 7 -9 7 C-9 7.66 -9 8.32 -9 9 C-6.69 8.34 -4.38 7.68 -2 7 C-3.32 9.64 -4.64 12.28 -6 15 C-4.02 14.67 -2.04 14.34 0 14 C-0.33 14.66 -0.66 15.32 -1 16 C-1.66 16 -2.32 16 -3 16 C-3 16.99 -3 17.98 -3 19 C-2.34 19 -1.68 19 -1 19 C-2.14668209 22.44004627 -2.87943304 23.26635169 -6 25 C-9.28473511 25 -10.57692374 24.40942864 -12.9375 22.125 C-21 9.90909091 -21 9.90909091 -21 6 C-20.2575 5.9175 -19.515 5.835 -18.75 5.75 C-15.48778646 4.8603054 -14.19045122 3.51496251 -12 1 C-11.67 1.66 -11.34 2.32 -11 3 C-6.94393835 2.53199289 -3.53411321 2.12046792 0 0 Z " fill="#094080" transform="translate(74,138)"/>
<path d="M0 0 C0.99 0.33 1.98 0.66 3 1 C2.67 2.32 2.34 3.64 2 5 C2.66 5.33 3.32 5.66 4 6 C3.01 8.31 2.02 10.62 1 13 C1.66 13 2.32 13 3 13 C2.67 14.32 2.34 15.64 2 17 C1.01 16.01 0.02 15.02 -1 14 C-0.649375 14.556875 -0.29875 15.11375 0.0625 15.6875 C1.21845993 18.53886783 0.80967438 20.08517222 0 23 C-5.875 22.125 -5.875 22.125 -7 21 C-7 19.33333333 -7 17.66666667 -7 16 C-7.33 15.67 -7.66 15.34 -8 15 C-8 16.32 -8 17.64 -8 19 C-8.99 18.67 -9.98 18.34 -11 18 C-11.33 16.35 -11.66 14.7 -12 13 C-13.98 13.99 -13.98 13.99 -16 15 C-15.52753358 10.74780225 -13.22727623 8.62685275 -10 6 C-7.51814024 6.14182056 -6.20753096 6.89623452 -4 8 C-2.68 5.36 -1.36 2.72 0 0 Z " fill="#033D7D" transform="translate(103,160)"/>
<path d="M0 0 C3.86526773 1.4587471 4.97031959 3.24854146 6.6875 6.9375 C7.10386719 7.81277344 7.52023438 8.68804687 7.94921875 9.58984375 C11.49712404 17.72760422 11.17677091 27.76784371 8.1875 36.0625 C7.49127552 37.72253701 6.76529895 39.37065384 6 41 C5.69191406 41.66257813 5.38382813 42.32515625 5.06640625 43.0078125 C4.41137459 44.35548529 3.71252835 45.68182255 3 47 C1.82021856 43.46065569 2.28534693 42.57633852 3.4375 39.125 C6.43135247 28.6187955 5.9085255 18.83496532 1 9 C0.34 8.34 -0.32 7.68 -1 7 C-0.625 3.375 -0.625 3.375 0 0 Z " fill="#E3E9F0" transform="translate(197,82)"/>
<path d="M0 0 C0 0.66 0 1.32 0 2 C0.66 2 1.32 2 2 2 C1.38722388 4.96175123 0.74627478 6.38058783 -1 9 C1.31 8.34 3.62 7.68 6 7 C6 7.66 6 8.32 6 9 C-3.41002278 13.59225513 -3.41002278 13.59225513 -8 13 C-7.67 14.32 -7.34 15.64 -7 17 C-8.65 17.99 -10.3 18.98 -12 20 C-13.00593243 18.8803014 -14.0045849 17.7540588 -15 16.625 C-15.8353125 15.68527344 -15.8353125 15.68527344 -16.6875 14.7265625 C-18 13 -18 13 -18 11 C-17.0925 11.0825 -16.185 11.165 -15.25 11.25 C-11.89958592 11.31024799 -11.89958592 11.31024799 -9.625 9 C-9.08875 8.34 -8.5525 7.68 -8 7 C-8.66 7 -9.32 7 -10 7 C-10 6.01 -10 5.02 -10 4 C-3.375 0 -3.375 0 0 0 Z " fill="#0C4180" transform="translate(81,150)"/>
<path d="M0 0 C2.69652159 0.98872458 3.79023547 1.59212453 5.125 4.1875 C6.13828942 7.44450171 7.09704742 10.71067273 8 14 C14.40079188 14.50780964 14.40079188 14.50780964 20 12 C20.81171228 9.44480079 20.81171228 9.44480079 21 7 C22.65 7 24.3 7 26 7 C26.66 5.35 27.32 3.7 28 2 C30.375 1.875 30.375 1.875 33 2 C35 4 35 4 35 6 C34 8 34 8 30.9375 9.25 C29.968125 9.4975 28.99875 9.745 28 10 C31.01868434 11.50934217 33.67297229 11.17510672 37 11 C37.99 10.34 38.98 9.68 40 9 C40 7.68 40 6.36 40 5 C40.99 5.33 41.98 5.66 43 6 C42.6875 8.375 42.6875 8.375 42 11 C37.76146751 13.82568832 33.97857829 13.5470094 29 13 C25.875 11.5 25.875 11.5 24 10 C23.4225 10.78375 22.845 11.5675 22.25 12.375 C19.08671249 16.06550209 17.45829029 16.86497312 12.625 17.3125 C8.73171146 16.97687168 6.34659055 15.95897983 3 14 C3.0928125 12.3603125 3.0928125 12.3603125 3.1875 10.6875 C3.38972523 7.08412442 3.38972523 7.08412442 1.5 5.3125 C1.005 4.879375 0.51 4.44625 0 4 C0 2.68 0 1.36 0 0 Z " fill="#CCD8E4" transform="translate(122,19)"/>
<path d="M0 0 C0.33 0 0.66 0 1 0 C1.95028987 19.42814842 -1.39604916 34.89194293 -13.6875 50.625 C-15.78667135 52.78090571 -17.16909306 54.05636435 -20 55 C-20.99 55 -21.98 55 -23 55 C-22.57589844 54.62230469 -22.15179688 54.24460938 -21.71484375 53.85546875 C-9.11019589 42.02649152 -3.8624217 27.25935236 -2.6315918 10.39648438 C-2.09432889 3.18889584 -2.09432889 3.18889584 0 0 Z " fill="#D9E2EB" transform="translate(226,100)"/>
<path d="M0 0 C2 2 2 2 2.1953125 4.1640625 C2.17210937 4.97617188 2.14890625 5.78828125 2.125 6.625 C2.10695312 7.44226563 2.08890625 8.25953125 2.0703125 9.1015625 C2.04710937 9.72804687 2.02390625 10.35453125 2 11 C-1.35789905 12.67894952 -5.14684746 12.16316336 -8.83984375 12.16796875 C-9.71774063 12.17129715 -10.59563751 12.17462555 -11.50013733 12.17805481 C-13.35872879 12.18312218 -15.21732937 12.18546319 -17.07592773 12.18530273 C-19.92251547 12.18748849 -22.76871529 12.20564408 -25.61523438 12.22460938 C-27.4192695 12.22754345 -29.22330648 12.22952815 -31.02734375 12.23046875 C-32.30713356 12.24124702 -32.30713356 12.24124702 -33.61277771 12.25224304 C-39.65675815 12.2288279 -39.65675815 12.2288279 -43 10 C-42 7 -42 7 -40 5 C-39.67 4.34 -39.34 3.68 -39 3 C-38 4 -38 4 -37.9375 7.0625 C-37.958125 8.031875 -37.97875 9.00125 -38 10 C-37.21625 9.814375 -36.4325 9.62875 -35.625 9.4375 C-33 9 -33 9 -31 10 C-31 8.68 -31 7.36 -31 6 C-30.01 6.33 -29.02 6.66 -28 7 C-28 7.99 -28 8.98 -28 10 C-26.948125 9.814375 -25.89625 9.62875 -24.8125 9.4375 C-21.42880118 9.04920669 -19.23574112 9.11752515 -16 10 C-15.34 8.68 -14.68 7.36 -14 6 C-13.01 6 -12.02 6 -11 6 C-10.67 5.34 -10.34 4.68 -10 4 C-7 7.75 -7 7.75 -7 10 C-6.401875 9.814375 -5.80375 9.62875 -5.1875 9.4375 C-3 9 -3 9 0 10 C-0.08378906 9.36191406 -0.16757813 8.72382813 -0.25390625 8.06640625 C-0.40666016 6.82697266 -0.40666016 6.82697266 -0.5625 5.5625 C-0.71912109 4.32693359 -0.71912109 4.32693359 -0.87890625 3.06640625 C-0.93884766 2.04353516 -0.93884766 2.04353516 -1 1 C-0.67 0.67 -0.34 0.34 0 0 Z " fill="#434F9D" transform="translate(141,218)"/>
<path d="M0 0 C0.66 0.33 1.32 0.66 2 1 C0.28111303 4.54520438 -1.75036185 6.73430756 -4.75 9.1875 C-13.90396239 16.94737271 -20.22195912 28.38273815 -23 40 C-23.99 40 -24.98 40 -26 40 C-26.33 39.34 -26.66 38.68 -27 38 C-21.83756605 23.17768963 -13.30288622 8.86859081 0 0 Z " fill="#E0E8EF" transform="translate(151,66)"/>
<path d="M0 0 C1 2 1 2 1 5 C3.97 5 6.94 5 10 5 C8.75191044 8.45624801 7.56047284 11.33237081 5 14 C2.37109375 14.42578125 2.37109375 14.42578125 -0.5625 14.3125 C-1.53316406 14.28800781 -2.50382813 14.26351562 -3.50390625 14.23828125 C-6 14 -6 14 -8 13 C-7.48118887 8.8275894 -6.28848726 6.74583179 -3.4375 3.6875 C-2.79683594 2.99011719 -2.15617188 2.29273437 -1.49609375 1.57421875 C-1.00238281 1.05472656 -0.50867188 0.53523438 0 0 Z " fill="#EFF2F6" transform="translate(182,68)"/>
<path d="M0 0 C1.98 0.66 3.96 1.32 6 2 C6 2.99 6 3.98 6 5 C6.99 5 7.98 5 9 5 C6.99963422 9.79061958 3.65081214 11.92406278 -1 14 C-5.17777778 13.82222222 -5.17777778 13.82222222 -7 12 C-7.04080783 10.00041636 -7.04254356 7.99954746 -7 6 C-6.401875 5.7525 -5.80375 5.505 -5.1875 5.25 C-2.71352479 3.83629988 -1.56629745 2.34944617 0 0 Z " fill="#144582" transform="translate(138,130)"/>
<path d="M0 0 C1.65 0.33 3.3 0.66 5 1 C5 1.66 5 2.32 5 3 C6.98 2.67 8.96 2.34 11 2 C10.67 2.99 10.34 3.98 10 5 C8.35 5 6.7 5 5 5 C5 5.99 5 6.98 5 8 C6.32 8 7.64 8 9 8 C9 9.32 9 10.64 9 12 C8.34 12 7.68 12 7 12 C7 12.99 7 13.98 7 15 C2.64477147 14.49357808 -0.44239635 13.61588503 -4 11 C-4 10.34 -4 9.68 -4 9 C-3.34 8.67 -2.68 8.34 -2 8 C-2.33 7.01 -2.66 6.02 -3 5 C-1.5625 2.3125 -1.5625 2.3125 0 0 Z " fill="#2A528A" transform="translate(234,132)"/>
<path d="M0 0 C0 0.33 0 0.66 0 1 C-0.99459229 1.01401855 -0.99459229 1.01401855 -2.00927734 1.02832031 C-19.33522334 1.33359696 -35.66764542 2.40192692 -51.73828125 9.36328125 C-54.48550506 10.13667932 -56.27764775 9.74684 -59 9 C-56.92718433 6.92718433 -55.89375156 6.46344693 -53.18359375 5.5625 C-52.03600586 5.17964844 -52.03600586 5.17964844 -50.86523438 4.7890625 C-50.06408203 4.52867188 -49.26292969 4.26828125 -48.4375 4 C-47.66341797 3.73960938 -46.88933594 3.47921875 -46.09179688 3.2109375 C-30.52725779 -1.92108371 -16.15335213 -1.00509747 0 0 Z " fill="#D2D2D4" transform="translate(162,5)"/>
<path d="M0 0 C0 1.65 0 3.3 0 5 C-0.99 5 -1.98 5 -3 5 C-3 5.66 -3 6.32 -3 7 C-2.01 7.33 -1.02 7.66 0 8 C-7 8 -7 8 -8.8125 7.4375 C-11.47414538 6.90517092 -13.37892757 7.37921969 -16 8 C-19 8 -22 8 -25 8 C-25 5.69 -25 3.38 -25 1 C-24.67 1 -24.34 1 -24 1 C-23.67 2.65 -23.34 4.3 -23 6 C-22.01 6.33 -21.02 6.66 -20 7 C-20 5.02 -20 3.04 -20 1 C-12.57142857 -0.28571429 -12.57142857 -0.28571429 -9 1 C-8.67 2.65 -8.34 4.3 -8 6 C-7.9175 5.21625 -7.835 4.4325 -7.75 3.625 C-7 1 -7 1 -5.125 -0.375 C-3 -1 -3 -1 0 0 Z " fill="#7D84B9" transform="translate(221,257)"/>
<path d="M0 0 C1.093125 0.350625 2.18625 0.70125 3.3125 1.0625 C6.90920373 2.33039454 6.90920373 2.33039454 10 1 C10.33 1.99 10.66 2.98 11 4 C11.33 3.01 11.66 2.02 12 1 C15 2 15 2 16 4 C16.66 3.01 17.32 2.02 18 1 C18 2.98 18 4.96 18 7 C19.32 7 20.64 7 22 7 C22 5.02 22 3.04 22 1 C23.32 1.33 24.64 1.66 26 2 C25.01 2.495 25.01 2.495 24 3 C24.66 3.66 25.32 4.32 26 5 C25.01 5.495 25.01 5.495 24 6 C24.99 6.66 25.98 7.32 27 8 C25.06280622 8.05406122 23.12518079 8.09282025 21.1875 8.125 C20.10855469 8.14820313 19.02960938 8.17140625 17.91796875 8.1953125 C15 8 15 8 12 6 C12 6.66 12 7.32 12 8 C10.68 8 9.36 8 8 8 C7.67 7.34 7.34 6.68 7 6 C6.34 6.66 5.68 7.32 5 8 C5 7.34 5 6.68 5 6 C4.34 6 3.68 6 3 6 C3 6.66 3 7.32 3 8 C1.35 7.67 -0.3 7.34 -2 7 C-2.125 4.625 -2.125 4.625 -2 2 C-1.34 1.34 -0.68 0.68 0 0 Z " fill="#545DA4" transform="translate(83,257)"/>
<path d="M0 0 C2.29013653 3.4352048 2.17842973 4.985331 2 9 C2.598125 8.484375 3.19625 7.96875 3.8125 7.4375 C4.534375 6.963125 5.25625 6.48875 6 6 C6.99 6.33 7.98 6.66 9 7 C9 7.99 9 8.98 9 10 C9.99 10 10.98 10 12 10 C11.505 5.05 11.505 5.05 11 0 C11.66 0 12.32 0 13 0 C13.07347656 0.95712891 13.07347656 0.95712891 13.1484375 1.93359375 C13.22320312 2.75988281 13.29796875 3.58617187 13.375 4.4375 C13.44460937 5.26121094 13.51421875 6.08492187 13.5859375 6.93359375 C13.72257812 7.61550781 13.85921875 8.29742187 14 9 C14.66 9.33 15.32 9.66 16 10 C15.67 7.03 15.34 4.06 15 1 C15.66 0.67 16.32 0.34 17 0 C17.33 3.63 17.66 7.26 18 11 C14.01996844 11.79600631 10.87157441 12.13501648 6.875 12.125 C5.32425781 12.12886719 5.32425781 12.12886719 3.7421875 12.1328125 C1 12 1 12 -2 11 C-2.226875 11.804375 -2.45375 12.60875 -2.6875 13.4375 C-3.3371875 14.7059375 -3.3371875 14.7059375 -4 16 C-6.625 16.8125 -6.625 16.8125 -9 17 C-9.66 15.68 -10.32 14.36 -11 13 C-8.03 13.495 -8.03 13.495 -5 14 C-5.33 12.02 -5.66 10.04 -6 8 C-4.68 7.67 -3.36 7.34 -2 7 C-2 7.99 -2 8.98 -2 10 C-1.01 10 -0.02 10 1 10 C0.67 6.7 0.34 3.4 0 0 Z " fill="#4B56A1" transform="translate(166,218)"/>
<path d="M0 0 C2.475 0.99 2.475 0.99 5 2 C5 3.98 5 5.96 5 8 C4.34 8 3.68 8 3 8 C3 8.66 3 9.32 3 10 C5.97 10.495 5.97 10.495 9 11 C9.12375 12.423125 9.12375 12.423125 9.25 13.875 C9.65074923 17.10461791 9.65074923 17.10461791 12.0625 18.375 C13.0215625 18.684375 13.0215625 18.684375 14 19 C13.67 20.32 13.34 21.64 13 23 C12.01 23 11.02 23 10 23 C8.96564444 21.35443434 7.97236487 19.6829392 7 18 C3.81679531 14.45380816 3.81679531 14.45380816 -0.1875 12 C-2.77931046 10.57003561 -3.13509633 8.73886163 -4 6 C-0.25 4.875 -0.25 4.875 2 6 C2 5.01 2 4.02 2 3 C1.34 2.67 0.68 2.34 0 2 C0 1.34 0 0.68 0 0 Z " fill="#C4D1E0" transform="translate(209,36)"/>
<path d="M0 0 C1 2 1 2 1.4375 4.0625 C1.7159375 5.0215625 1.7159375 5.0215625 2 6 C4.64458379 7.32229189 6.67761301 7.09677194 9.625 7.0625 C10.62789062 7.05347656 11.63078125 7.04445313 12.6640625 7.03515625 C13.43492187 7.02355469 14.20578125 7.01195312 15 7 C15 6.34 15 5.68 15 5 C15.763125 5.350625 16.52625 5.70125 17.3125 6.0625 C20.04759379 7.32360884 20.04759379 7.32360884 23 6 C23 7.32 23 8.64 23 10 C23.99 10 24.98 10 26 10 C26.66 7.69 27.32 5.38 28 3 C28.99 3 29.98 3 31 3 C28.6396648 9.53631285 28.6396648 9.53631285 26 12 C23.29863997 12.64190733 20.79001105 12.81704846 18 13 C18 12.01 18 11.02 18 10 C17.01 10.33 16.02 10.66 15 11 C9.85468979 11.03982438 5.35913045 10.74618927 0.8125 8.25 C-1 6 -1 6 -1.375 3.3125 C-1 1 -1 1 0 0 Z " fill="#C9D6E3" transform="translate(173,28)"/>
<path d="M0 0 C0.77999376 2.33998128 1.42036234 4.60899466 2 7 C2.3327576 8.33347714 2.66601183 9.66683055 3 11 C-17.66666667 13.66666667 -17.66666667 13.66666667 -23 11 C-23 7 -23 7 -21 5 C-21 4.34 -21 3.68 -21 3 C-21.99 3 -22.98 3 -24 3 C-24 2.34 -24 1.68 -24 1 C-22.68 1 -21.36 1 -20 1 C-17.70986347 4.4352048 -17.82157027 5.985331 -18 10 C-10.35024875 9.46941523 -10.35024875 9.46941523 -4 6 C-3.01 6 -2.02 6 -1 6 C-1.020625 5.195625 -1.04125 4.39125 -1.0625 3.5625 C-1 1 -1 1 0 0 Z " fill="#303D94" transform="translate(212,218)"/>
<path d="M0 0 C0.33 0.66 0.66 1.32 1 2 C2.32 2 3.64 2 5 2 C5.99 2.33 6.98 2.66 8 3 C7.67 3.66 7.34 4.32 7 5 C6.34 4.67 5.68 4.34 5 4 C5 5.32 5 6.64 5 8 C6.32 7.67 7.64 7.34 9 7 C9.33 5.68 9.66 4.36 10 3 C11.65 3.33 13.3 3.66 15 4 C15 5.65 15 7.3 15 9 C13.1875 9.625 13.1875 9.625 11 10 C10.01 9.34 9.02 8.68 8 8 C8 8.66 8 9.32 8 10 C4.7 10 1.4 10 -2 10 C-2 7.36 -2 4.72 -2 2 C-1.34 2 -0.68 2 0 2 C0 1.34 0 0.68 0 0 Z " fill="#6D76B2" transform="translate(32,255)"/>
<path d="M0 0 C3.625 0.25 3.625 0.25 5.625 1.4375 C6.625 3.25 6.625 3.25 6.5 5.75 C5.625 8.25 5.625 8.25 2.625 11.25 C-0.345 9.6 -3.315 7.95 -6.375 6.25 C-4.08760997 0.30278592 -4.08760997 0.30278592 0 0 Z " fill="#D1DBE7" transform="translate(230.375,145.75)"/>
<path d="M0 0 C3.125 0.3125 3.125 0.3125 5.0625 2 C6.40733625 4.92699654 6.15615662 6.29834989 5.125 9.3125 C4.465 9.9725 3.805 10.6325 3.125 11.3125 C-0.17214793 10.98278521 -1.4976839 10.6898161 -3.875 8.3125 C-4.0625 4.75 -4.0625 4.75 -3.875 1.3125 C-2.875 0.3125 -2.875 0.3125 0 0 Z " fill="#D4DDE8" transform="translate(169.875,184.6875)"/>
<path d="M0 0 C0.33 0 0.66 0 1 0 C1.03738281 0.94617188 1.07476562 1.89234375 1.11328125 2.8671875 C1.60889773 13.4182816 3.09231234 23.62008165 5 34 C5.21140625 35.18207031 5.4228125 36.36414063 5.640625 37.58203125 C6.08530791 40.05637399 6.53736121 42.52896461 7 45 C1.47270437 40.56237122 0.60757008 31.59440312 -0.51171875 24.97265625 C-1.39325236 16.62670816 -0.68753877 8.33508543 0 0 Z " fill="#CDCFD3" transform="translate(43,98)"/>
<path d="M0 0 C2.69082872 0.17635452 5.32851446 0.61835921 8 1 C8 2.32 8 3.64 8 5 C7.01 5 6.02 5 5 5 C5 5.66 5 6.32 5 7 C5.99 7.33 6.98 7.66 8 8 C7.2575 7.814375 6.515 7.62875 5.75 7.4375 C2.97817108 6.99652722 1.63418715 7.23523599 -1 8 C-2.32 8 -3.64 8 -5 8 C-5.33 7.34 -5.66 6.68 -6 6 C-6.66 6.66 -7.32 7.32 -8 8 C-8 5.69 -8 3.38 -8 1 C-5.66666667 1 -3.33333333 1 -1 1 C-0.67 0.67 -0.34 0.34 0 0 Z " fill="#B4B8D5" transform="translate(161,257)"/>
<path d="M0 0 C2.31 1.65 4.62 3.3 7 5 C5.77065985 8.68802044 4.06140622 9.72356973 1 12 C-1.88437779 10.70700306 -3.87219421 9.34058637 -6 7 C-4.60667426 3.63279613 -3.0210714 2.0140476 0 0 Z " fill="#ECF1F4" transform="translate(62,100)"/>
<path d="M0 0 C2.88437779 1.29299694 4.87219421 2.65941363 7 5 C5.70700306 7.88437779 4.34058637 9.87219421 2 12 C-0.88437779 10.70700306 -2.87219421 9.34058637 -5 7 C-3.70700306 4.11562221 -2.34058637 2.12780579 0 0 Z " fill="#EEF2F5" transform="translate(243,100)"/>
<path d="M0 0 C1.32 0.33 2.64 0.66 4 1 C4 1.66 4 2.32 4 3 C4.66 3 5.32 3 6 3 C5.67 4.32 5.34 5.64 5 7 C3.68 6.67 2.36 6.34 1 6 C0.15157692 8.65132212 0.02737443 10.48361492 0.1875 13.3125 C-0.05500628 18.08179012 -1.31283905 20.08442262 -4 24 C-7.22791555 26.1519437 -8.28400809 26.20086443 -12 26 C-11.4225 25.7525 -10.845 25.505 -10.25 25.25 C-7.45215646 23.69564248 -5.94238945 22.58985261 -4 20 C-3.0766713 16.70091542 -2.49140293 13.38809385 -2 10 C-2.99 10 -3.98 10 -5 10 C-4.67 9.01 -4.34 8.02 -4 7 C-3.34 7 -2.68 7 -2 7 C-0.5393715 4.35261084 0 3.10551666 0 0 Z " fill="#AFC1D5" transform="translate(83,52)"/>
<path d="M0 0 C0.99 0.33 1.98 0.66 3 1 C2.67 1.66 2.34 2.32 2 3 C1.34 3 0.68 3 0 3 C0 3.99 0 4.98 0 6 C0.66 6.33 1.32 6.66 2 7 C1.67 6.01 1.34 5.02 1 4 C1.639375 3.87625 2.27875 3.7525 2.9375 3.625 C3.618125 3.41875 4.29875 3.2125 5 3 C5.33 2.34 5.66 1.68 6 1 C6.66 1 7.32 1 8 1 C8.66 3.31 9.32 5.62 10 8 C8.68 7.34 7.36 6.68 6 6 C6 6.66 6 7.32 6 8 C1 8 -4 8 -9 8 C-8.34 5.69 -7.68 3.38 -7 1 C-6.01 1.33 -5.02 1.66 -4 2 C-4 2.66 -4 3.32 -4 4 C-3.34 4 -2.68 4 -2 4 C-1.34 2.68 -0.68 1.36 0 0 Z " fill="#5861A6" transform="translate(249,257)"/>
<path d="M0 0 C1.06089844 0.00902344 2.12179688 0.01804688 3.21484375 0.02734375 C5.81013638 0.05072476 8.40494465 0.08349444 11 0.125 C11 0.455 11 0.785 11 1.125 C9.35 1.455 7.7 1.785 6 2.125 C6 2.455 6 2.785 6 3.125 C4.04707031 3.21587891 4.04707031 3.21587891 2.0546875 3.30859375 C0.32811601 3.39304562 -1.398446 3.47769126 -3.125 3.5625 C-3.9809375 3.60181641 -4.836875 3.64113281 -5.71875 3.68164062 C-10.21721792 3.90656402 -14.56806207 4.26040883 -19 5.125 C-19.33 4.135 -19.66 3.145 -20 2.125 C-13.23411279 0.0594527 -7.04406312 -0.11460929 0 0 Z " fill="#C5D2E0" transform="translate(154,40.875)"/>
<path d="M0 0 C2.60482019 2.27700415 2.96961642 2.76553555 3.44140625 6.40625 C3.49378441 7.77042503 3.53351072 9.13512763 3.5625 10.5 C3.82737274 17.14672107 4.5786773 23.48675421 6 30 C5.01 30.33 4.02 30.66 3 31 C0.39726977 23.80312325 -0.3962771 17.49804072 -0.1875 9.875 C-0.17396484 8.91851562 -0.16042969 7.96203125 -0.14648438 6.9765625 C-0.11159222 4.6504189 -0.06258339 2.3255347 0 0 Z " fill="#CBD7E4" transform="translate(80,99)"/>
<path d="M0 0 C-0.57584432 2.38564077 -1.22227595 4.66682784 -2 7 C-0.35 6.34 1.3 5.68 3 5 C1.88809524 8.33571429 1.53679327 8.58417079 -1.375 10.1875 C-1.98085937 10.53167969 -2.58671875 10.87585938 -3.2109375 11.23046875 C-5 12 -5 12 -8 12 C-7.42415568 9.61435923 -6.77772405 7.33317216 -6 5 C-7.65 5.33 -9.3 5.66 -11 6 C-11 5.34 -11 4.68 -11 4 C-9.73308493 3.32591692 -8.46129251 2.66099503 -7.1875 2 C-6.47980469 1.62875 -5.77210937 1.2575 -5.04296875 0.875 C-3 0 -3 0 0 0 Z " fill="#D3DDE8" transform="translate(76,141)"/>
<path d="M0 0 C0 0.99 0 1.98 0 3 C-1.7015625 3.4021875 -1.7015625 3.4021875 -3.4375 3.8125 C-5.2009375 4.4003125 -5.2009375 4.4003125 -7 5 C-7.33 5.99 -7.66 6.98 -8 8 C-4.7 7.34 -1.4 6.68 2 6 C1 9 1 9 -1.25 10.1875 C-4.0654371 11.01933369 -6.09035769 11.39319491 -9 11 C-11 8 -11 8 -11.0625 5.5 C-10 3 -10 3 -6.625 1.1875 C-3 0 -3 0 0 0 Z " fill="#BECBDC" transform="translate(72,131)"/>
<path d="M0 0 C4.35992871 -0.04945386 8.71970862 -0.08574488 13.07983398 -0.10986328 C14.56293583 -0.11991821 16.04601788 -0.13356404 17.52905273 -0.15087891 C19.66134531 -0.17515006 21.79337569 -0.18648799 23.92578125 -0.1953125 C25.85031128 -0.21102295 25.85031128 -0.21102295 27.8137207 -0.22705078 C31 0 31 0 34 2 C33 3 33 3 30.50317383 3.03759766 C29.41544678 2.99683105 28.32771973 2.95606445 27.20703125 2.9140625 C26.01916016 2.87023437 24.83128906 2.82640625 23.60742188 2.78125 C22.35509766 2.7296875 21.10277344 2.678125 19.8125 2.625 C18.57951172 2.58117187 17.34652344 2.53734375 16.07617188 2.4921875 C10.62432692 2.28035111 5.37424669 1.98944758 0 1 C0 0.67 0 0.34 0 0 Z " fill="#D5D4D5" transform="translate(138,3)"/>
<path d="M0 0 C0.66 0.66 1.32 1.32 2 2 C1.59007812 2.71285156 1.18015625 3.42570312 0.7578125 4.16015625 C-2.17963227 9.38149947 -4.69764346 14.13939559 -6 20 C-6.99 20 -7.98 20 -9 20 C-9.33 19.34 -9.66 18.68 -10 18 C-8.99814649 15.26552925 -7.93328114 12.654262 -6.75 10 C-6.43675781 9.26265625 -6.12351562 8.5253125 -5.80078125 7.765625 C-5.33478516 6.70601563 -5.33478516 6.70601563 -4.859375 5.625 C-4.57545898 4.97789063 -4.29154297 4.33078125 -3.99902344 3.6640625 C-3 2 -3 2 0 0 Z " fill="#E0E7EE" transform="translate(134,86)"/>
<path d="M0 0 C0.99 0 1.98 0 3 0 C3 0.99 3 1.98 3 3 C1 4.6875 1 4.6875 -1 6 C-0.67 7.65 -0.34 9.3 0 11 C0.33 11 0.66 11 1 11 C1 10.34 1 9.68 1 9 C1.99 9.33 2.98 9.66 4 10 C4.33 13.63 4.66 17.26 5 21 C1.35092371 19.78364124 1.1171341 18.92757323 -0.625 15.625 C-1.05039063 14.83351563 -1.47578125 14.04203125 -1.9140625 13.2265625 C-3 11 -3 11 -4 8 C-4.99 7.67 -5.98 7.34 -7 7 C-6.21625 6.5875 -5.4325 6.175 -4.625 5.75 C-1.94108344 3.9607223 -1.11901051 2.95011861 0 0 Z " fill="#D5E0EA" transform="translate(229,55)"/>
<path d="M0 0 C0.99 0 1.98 0 3 0 C3.66 1.32 4.32 2.64 5 4 C5.33 2.68 5.66 1.36 6 0 C6.66 0 7.32 0 8 0 C8 3.63 8 7.26 8 11 C4 9 4 9 3 7 C2.67 8.32 2.34 9.64 2 11 C1.01 11 0.02 11 -1 11 C-0.67 7.37 -0.34 3.74 0 0 Z " fill="#C6D3E1" transform="translate(144,186)"/>
<path d="M0 0 C0.66 0.33 1.32 0.66 2 1 C2 2.98 2 4.96 2 7 C3.65 6.67 5.3 6.34 7 6 C7 5.34 7 4.68 7 4 C7.66 4 8.32 4 9 4 C9 5.32 9 6.64 9 8 C7.35 8 5.7 8 4 8 C4.99 9.485 4.99 9.485 6 11 C9.58357241 11.25015873 9.58357241 11.25015873 13 11 C12.67 11.66 12.34 12.32 12 13 C5.43890675 13.37138264 5.43890675 13.37138264 3.375 11.625 C2.92125 11.08875 2.4675 10.5525 2 10 C-0.59915538 8.80972016 -0.59915538 8.80972016 -3 8 C-3 6.68 -3 5.36 -3 4 C-2.34 3.67 -1.68 3.34 -1 3 C-0.67 2.01 -0.34 1.02 0 0 Z " fill="#555EA5" transform="translate(236,221)"/>
<path d="M0 0 C0.66 0.33 1.32 0.66 2 1 C2 2.98 2 4.96 2 7 C2.78375 6.814375 3.5675 6.62875 4.375 6.4375 C7 6 7 6 9 7 C9 5.68 9 4.36 9 3 C9.99 3.33 10.98 3.66 12 4 C12 4.99 12 5.98 12 7 C13.11375 6.835 14.2275 6.67 15.375 6.5 C19 6 19 6 21 6 C21 6.66 21 7.32 21 8 C17.56341292 8.22580354 14.12582782 8.42762697 10.6875 8.625 C9.71103516 8.68945312 8.73457031 8.75390625 7.72851562 8.8203125 C6.32182617 8.89765625 6.32182617 8.89765625 4.88671875 8.9765625 C3.59060669 9.05511475 3.59060669 9.05511475 2.26831055 9.13525391 C0 9 0 9 -3 7 C-2 4 -2 4 0 2 C0 1.34 0 0.68 0 0 Z " fill="#414D9D" transform="translate(101,221)"/>
<path d="M0 0 C2.69652159 0.98872458 3.79023547 1.59212453 5.125 4.1875 C6.13828942 7.44450171 7.09704742 10.71067273 8 14 C12.51617599 14.07654536 16.59085217 14.10228696 21 13 C18.21999924 15.90636443 16.89015947 16.93152619 12.75 17.25 C8.74924521 16.98328301 6.42813769 16.00671475 3 14 C3.0928125 12.3603125 3.0928125 12.3603125 3.1875 10.6875 C3.38972523 7.08412442 3.38972523 7.08412442 1.5 5.3125 C1.005 4.879375 0.51 4.44625 0 4 C0 2.68 0 1.36 0 0 Z " fill="#A4B6CD" transform="translate(122,19)"/>
<path d="M0 0 C1.2065625 0.0309375 1.2065625 0.0309375 2.4375 0.0625 C1.4475 0.7225 0.4575 1.3825 -0.5625 2.0625 C-0.2325 3.7125 0.0975 5.3625 0.4375 7.0625 C1.7575 7.3925 3.0775 7.7225 4.4375 8.0625 C4.4375 7.0725 4.4375 6.0825 4.4375 5.0625 C3.4475 5.0625 2.4575 5.0625 1.4375 5.0625 C1.4375 4.4025 1.4375 3.7425 1.4375 3.0625 C3.0875 2.7325 4.7375 2.4025 6.4375 2.0625 C7.125 4.375 7.125 4.375 7.4375 7.0625 C6.3125 8.875 6.3125 8.875 4.4375 10.0625 C2 10.5 2 10.5 -0.5625 10.0625 C-2.9375 8.375 -2.9375 8.375 -4.5625 6.0625 C-4.14659091 0.10113636 -4.14659091 0.10113636 0 0 Z " fill="#D2DCE8" transform="translate(216.5625,161.9375)"/>
<path d="M0 0 C3.3 0.66 6.6 1.32 10 2 C10.33 2.99 10.66 3.98 11 5 C9.68 5.33 8.36 5.66 7 6 C6.67 7.65 6.34 9.3 6 11 C5.34 11 4.68 11 4 11 C2.67578125 9.35546875 2.67578125 9.35546875 1.3125 7.1875 C0.85488281 6.47980469 0.39726562 5.77210938 -0.07421875 5.04296875 C-1 3 -1 3 0 0 Z " fill="#B8C7D9" transform="translate(221,155)"/>
<path d="M0 0 C0.33 0 0.66 0 1 0 C1.05444001 3.00024947 1.0938836 5.99949039 1.125 9 C1.14175781 9.83917969 1.15851563 10.67835937 1.17578125 11.54296875 C1.21849117 17.05254877 0.55502007 21.71048292 -1 27 C-1.99 26.34 -2.98 25.68 -4 25 C-3.72159206 21.58211729 -3.42496793 18.16605265 -3.125 14.75 C-3.04636719 13.78191406 -2.96773437 12.81382813 -2.88671875 11.81640625 C-2.80292969 10.88183594 -2.71914062 9.94726562 -2.6328125 8.984375 C-2.55949707 8.12553711 -2.48618164 7.26669922 -2.41064453 6.38183594 C-1.9867081 3.92290383 -1.22775866 2.15840847 0 0 Z " fill="#C5D2E0" transform="translate(226,100)"/>
<path d="M0 0 C0.33 0 0.66 0 1 0 C1.19477739 1.62414378 1.38059458 3.24936423 1.5625 4.875 C1.66691406 5.77992188 1.77132812 6.68484375 1.87890625 7.6171875 C2 10 2 10 1 12 C-0.423125 11.9690625 -0.423125 11.9690625 -1.875 11.9375 C-4.90666283 11.77448174 -4.90666283 11.77448174 -7 13 C-7 12.34 -7 11.68 -7 11 C-7.66 11 -8.32 11 -9 11 C-9 9.68 -9 8.36 -9 7 C-8.01 7 -7.02 7 -6 7 C-5.01 7.99 -4.02 8.98 -3 10 C-3.33 7.03 -3.66 4.06 -4 1 C-3.34 1 -2.68 1 -2 1 C-1.67 1.99 -1.34 2.98 -1 4 C-0.67 2.68 -0.34 1.36 0 0 Z " fill="#515BA3" transform="translate(226,218)"/>
<path d="M0 0 C0.66 0.33 1.32 0.66 2 1 C1.67 1.66 1.34 2.32 1 3 C1.66 3 2.32 3 3 3 C3 3.66 3 4.32 3 5 C1.35 5.33 -0.3 5.66 -2 6 C-1.01 6.33 -0.02 6.66 1 7 C1 7.66 1 8.32 1 9 C-0.65 8.67 -2.3 8.34 -4 8 C-4 8.99 -4 9.98 -4 11 C-2.68 11.66 -1.36 12.32 0 13 C-2.31 12.67 -4.62 12.34 -7 12 C-6.49287967 8.28111761 -5.88391785 5.26545761 -4 2 C-2.68 2 -1.36 2 0 2 C0 1.34 0 0.68 0 0 Z " fill="#CDD7E4" transform="translate(123,179)"/>
<path d="M0 0 C1.8125 0.9375 1.8125 0.9375 3.8125 2.9375 C3.8125 3.9275 3.8125 4.9175 3.8125 5.9375 C3.1525 5.9375 2.4925 5.9375 1.8125 5.9375 C1.4825 5.2775 1.1525 4.6175 0.8125 3.9375 C-0.1775 3.6075 -1.1675 3.2775 -2.1875 2.9375 C-1.6615625 3.741875 -1.6615625 3.741875 -1.125 4.5625 C0.10174249 7.67024763 -0.45893569 9.73181703 -1.1875 12.9375 C-1.8475 12.6075 -2.5075 12.2775 -3.1875 11.9375 C-3.8125 9.375 -3.8125 9.375 -4.1875 6.9375 C-6.1675 7.9275 -6.1675 7.9275 -8.1875 8.9375 C-7.70361474 4.58253265 -4.71927664 -0.13483648 0 0 Z " fill="#D1DBE7" transform="translate(95.1875,166.0625)"/>
<path d="M0 0 C2.31 0 4.62 0 7 0 C6.45276317 3.37462715 5.9451 5.08235 4 8 C5.65 8 7.3 8 9 8 C9 8.99 9 9.98 9 11 C6.03 11 3.06 11 0 11 C0.91458218 7.34167128 2.00476166 5.12298174 4 2 C2.68 2 1.36 2 0 2 C0 1.34 0 0.68 0 0 Z " fill="#C4D1E0" transform="translate(157,186)"/>
<path d="M0 0 C4 2 4 2 6 5 C3.83125748 4.49396008 2.00032373 4.00016187 0 3 C0.66 4.65 1.32 6.3 2 8 C-0.475 7.01 -0.475 7.01 -3 6 C-2.34 7.98 -1.68 9.96 -1 12 C-4.78496138 10.48601545 -5.0072198 9.9855604 -7 6 C-4.69 4.02 -2.38 2.04 0 0 Z " fill="#DCE4ED" transform="translate(87,160)"/>
<path d="M0 0 C0.66 0 1.32 0 2 0 C2.33 3.3 2.66 6.6 3 10 C0.69 10.66 -1.62 11.32 -4 12 C-4.33 11.67 -4.66 11.34 -5 11 C-9.65088715 10.69476038 -9.65088715 10.69476038 -14 12 C-13.690625 11.401875 -13.38125 10.80375 -13.0625 10.1875 C-11.89790296 7.91043228 -11.89790296 7.91043228 -11 5 C-11 5.66 -11 6.32 -11 7 C-7.62182575 7.84454356 -5.32534757 8.10844919 -2 7 C-2 7.66 -2 8.32 -2 9 C-1.01 9 -0.02 9 1 9 C0.67 6.03 0.34 3.06 0 0 Z " fill="#44509E" transform="translate(268,219)"/>
<path d="M0 0 C4.75 1.875 4.75 1.875 7 3 C5.95125002 5.62187494 5.35068687 6.79371361 2.875 8.25 C2.25625 8.4975 1.6375 8.745 1 9 C-0.32 8.01 -1.64 7.02 -3 6 C-2.42655063 3.13275314 -2.1385485 2.1385485 0 0 Z " fill="#E7EDF2" transform="translate(178,124)"/>
<path d="M0 0 C0.99 0.33 1.98 0.66 3 1 C3 2.98 3 4.96 3 7 C-0.40562852 7.77842938 -3.50765756 8.09978121 -7 8 C-7 5.69 -7 3.38 -7 1 C-5.0625 1.3125 -5.0625 1.3125 -3 2 C-2.67 2.99 -2.34 3.98 -2 5 C-1.34 3.35 -0.68 1.7 0 0 Z " fill="#7077B3" transform="translate(229,257)"/>
<path d="M0 0 C3.40312738 1.05875074 6.01353231 2.00902154 9 4 C8.67 4.66 8.34 5.32 8 6 C7.34 6 6.68 6 6 6 C5.01 7.98 4.02 9.96 3 12 C2.34 12 1.68 12 1 12 C1.69941596 8.85262818 2.76078698 5.97411124 4 3 C3.01 3 2.02 3 1 3 C-0.32 5.31 -1.64 7.62 -3 10 C-3.66 10 -4.32 10 -5 10 C-4.38545304 6.00544473 -2.29353263 3.25533664 0 0 Z " fill="#CDD9E5" transform="translate(109,176)"/>
<path d="M0 0 C4.03321763 1.21934486 7.54269479 2.55954927 11 5 C11 5.66 11 6.32 11 7 C9.35 7 7.7 7 6 7 C5.67 8.32 5.34 9.64 5 11 C4.34 11 3.68 11 3 11 C2.49384702 9.73160474 1.99530901 8.46016898 1.5 7.1875 C1.2215625 6.47980469 0.943125 5.77210938 0.65625 5.04296875 C0 3 0 3 0 0 Z " fill="#BDC9DB" transform="translate(206,169)"/>
<path d="M0 0 C0.33 1.32 0.66 2.64 1 4 C0.38125 3.835 -0.2375 3.67 -0.875 3.5 C-5.84495536 2.33059874 -9.64009289 4.93248292 -14.15234375 6.90625 C-17 8 -17 8 -20 8 C-19.25 3.25 -19.25 3.25 -17 1 C-16.01 1 -15.02 1 -14 1 C-14 1.66 -14 2.32 -14 3 C-14.99 3.33 -15.98 3.66 -17 4 C-17.33 4.66 -17.66 5.32 -18 6 C-17.11957031 5.566875 -16.23914063 5.13375 -15.33203125 4.6875 C-13.58986328 3.8521875 -13.58986328 3.8521875 -11.8125 3 C-10.08966797 2.1646875 -10.08966797 2.1646875 -8.33203125 1.3125 C-5.20909481 0.08236325 -3.29713518 -0.29804612 0 0 Z " fill="#CFDAE6" transform="translate(122,29)"/>
<path d="M0 0 C2.475 0.495 2.475 0.495 5 1 C5 1.66 5 2.32 5 3 C6.98 2.67 8.96 2.34 11 2 C10.67 2.99 10.34 3.98 10 5 C8.35 5 6.7 5 5 5 C5 5.99 5 6.98 5 8 C5.99 8.33 6.98 8.66 8 9 C8 9.66 8 10.32 8 11 C5.23723823 10.47731534 2.6739124 9.89130413 0 9 C0 8.34 0 7.68 0 7 C0.99 7 1.98 7 3 7 C3 5.35 3 3.7 3 2 C2.01 2.33 1.02 2.66 0 3 C0 2.01 0 1.02 0 0 Z " fill="#DAE2EC" transform="translate(234,132)"/>
<path d="M0 0 C1.65 0 3.3 0 5 0 C5 0.66 5 1.32 5 2 C4.01 2 3.02 2 2 2 C2 2.99 2 3.98 2 5 C2.99 4.67 3.98 4.34 5 4 C5 4.99 5 5.98 5 7 C3.35 7 1.7 7 0 7 C0 4.69 0 2.38 0 0 Z M7 0 C9.125 0.375 9.125 0.375 11 1 C10.67 1.99 10.34 2.98 10 4 C10 4.99 10 5.98 10 7 C9.01 7 8.02 7 7 7 C6.34 5.35 5.68 3.7 5 2 C5.66 1.34 6.32 0.68 7 0 Z " fill="#888FC0" transform="translate(79,240)"/>
<path d="M0 0 C1.98 0 3.96 0 6 0 C6.77675511 3.39830361 7.19382275 6.51119051 7 10 C6 11 6 11 3.0625 11.125 C0 11 0 11 -2 10 C-1.67 8.68 -1.34 7.36 -1 6 C-0.67 6.99 -0.34 7.98 0 9 C1.65 9 3.3 9 5 9 C4.01 7.68 3.02 6.36 2 5 C2.99 5 3.98 5 5 5 C5 4.01 5 3.02 5 2 C3.68 2 2.36 2 1 2 C0.67 2.99 0.34 3.98 0 5 C0 3.35 0 1.7 0 0 Z " fill="#D9E2EC" transform="translate(135,185)"/>
<path d="M0 0 C1.67542976 0.28604898 3.34385343 0.61781233 5 1 C4.67 2.32 4.34 3.64 4 5 C3.01 4.01 2.02 3.02 1 2 C1.350625 2.556875 1.70125 3.11375 2.0625 3.6875 C3.21845993 6.53886783 2.80967438 8.08517222 2 11 C-0.97 10.505 -0.97 10.505 -4 10 C-4.33 8.35 -4.66 6.7 -5 5 C-4.34 5 -3.68 5 -3 5 C-2.67 5.99 -2.34 6.98 -2 8 C-1.01 8.33 -0.02 8.66 1 9 C0.2265625 8.13375 0.2265625 8.13375 -0.5625 7.25 C-2 5 -2 5 -1.75 2.8125 C-1 1 -1 1 0 0 Z " fill="#DEE6ED" transform="translate(101,172)"/>
<path d="M0 0 C1.12067871 0.05236816 2.24135742 0.10473633 3.39599609 0.15869141 C4.60771484 0.21025391 5.81943359 0.26181641 7.06787109 0.31494141 C8.97439453 0.41162109 8.97439453 0.41162109 10.91943359 0.51025391 C12.19818359 0.56697266 13.47693359 0.62369141 14.79443359 0.68212891 C17.96164046 0.82394414 21.12809473 0.97538886 24.29443359 1.13525391 C24.29443359 1.46525391 24.29443359 1.79525391 24.29443359 2.13525391 C17.85943359 2.63025391 17.85943359 2.63025391 11.29443359 3.13525391 C11.29443359 3.46525391 11.29443359 3.79525391 11.29443359 4.13525391 C5.50544941 4.34200334 0.86510636 3.7268747 -4.70556641 2.13525391 C-2.70556641 0.13525391 -2.70556641 0.13525391 0 0 Z " fill="#AFC0D5" transform="translate(137.70556640625,172.86474609375)"/>
<path d="M0 0 C0.66 0 1.32 0 2 0 C1.38722388 2.96175123 0.74627478 4.38058783 -1 7 C1.31 6.34 3.62 5.68 6 5 C6 5.66 6 6.32 6 7 C4.5682384 7.69937202 3.12932968 8.38412718 1.6875 9.0625 C0.88699219 9.44535156 0.08648437 9.82820312 -0.73828125 10.22265625 C-3 11 -3 11 -6 10 C-5.49259538 5.60249328 -2.91706686 3.13051078 0 0 Z " fill="#CCD7E4" transform="translate(81,152)"/>
<path d="M0 0 C1.32 0 2.64 0 4 0 C4 1.65 4 3.3 4 5 C3.01 5 2.02 5 1 5 C1 5.66 1 6.32 1 7 C1.99 7.33 2.98 7.66 4 8 C0.33333333 8 -3.33333333 8 -7 8 C-7 5.69 -7 3.38 -7 1 C-6.67 1 -6.34 1 -6 1 C-6 2.65 -6 4.3 -6 6 C-5.01 6 -4.02 6 -3 6 C-2.814375 5.071875 -2.814375 5.071875 -2.625 4.125 C-2 2 -2 2 0 0 Z " fill="#6169AB" transform="translate(120,257)"/>
<path d="M0 0 C1.32 0.33 2.64 0.66 4 1 C4 2.65 4 4.3 4 6 C5.32 6.33 6.64 6.66 8 7 C8 7.66 8 8.32 8 9 C5.69 8.67 3.38 8.34 1 8 C1.33 8.99 1.66 9.98 2 11 C1.01 11 0.02 11 -1 11 C-1.99 8.03 -2.98 5.06 -4 2 C-3.34 2 -2.68 2 -2 2 C-2 2.99 -2 3.98 -2 5 C-1.01 4.67 -0.02 4.34 1 4 C1.33 3.01 1.66 2.02 2 1 C1.34 0.67 0.68 0.34 0 0 Z " fill="#D5DFE9" transform="translate(189,179)"/>
<path d="M0 0 C10.03411669 -0.17707265 19.99112106 0.37722531 30 1 C30 1.33 30 1.66 30 2 C29.2793335 2.02505615 28.55866699 2.0501123 27.81616211 2.07592773 C24.52312536 2.19260076 21.23032499 2.31500179 17.9375 2.4375 C16.80376953 2.47681641 15.67003906 2.51613281 14.50195312 2.55664062 C8.93261605 2.76772337 3.49489474 3.05095432 -2 4 C-1.34 3.67 -0.68 3.34 0 3 C0 2.01 0 1.02 0 0 Z " fill="#ADB7C4" transform="translate(132,4)"/>
<path d="M0 0 C3 1 3 1 4.1875 3.3125 C5 6 5 6 5 10 C4.34 10 3.68 10 3 10 C2.67 9.01 2.34 8.02 2 7 C1.01 6.67 0.02 6.34 -1 6 C-1 7.65 -1 9.3 -1 11 C-1.66 11 -2.32 11 -3 11 C-4.31626692 7.38026598 -5 4.90432869 -5 1 C-4.34 1 -3.68 1 -3 1 C-3 2.32 -3 3.64 -3 5 C-2.01 4.67 -1.02 4.34 0 4 C0 2.68 0 1.36 0 0 Z " fill="#DBE4EC" transform="translate(181,182)"/>
<path d="M0 0 C1.32 0.33 2.64 0.66 4 1 C4 1.66 4 2.32 4 3 C4.66 3 5.32 3 6 3 C6.33 2.34 6.66 1.68 7 1 C8 4 8 4 7.4375 5.9375 C6.8719694 8.60357285 7.61738438 9.72275075 9 12 C7.68 11.67 6.36 11.34 5 11 C5 10.01 5 9.02 5 8 C4.34 7.67 3.68 7.34 3 7 C2.67 6.67 2.34 6.34 2 6 C1.67 7.32 1.34 8.64 1 10 C1.020625 8.906875 1.04125 7.81375 1.0625 6.6875 C1.18544452 3.05615809 1.18544452 3.05615809 0 0 Z " fill="#234B87" transform="translate(93,169)"/>
<path d="M0 0 C2.83628804 0.64829441 4.57666886 1.45399904 6.375 3.7734375 C7.65298545 5.81973563 8.85741215 7.87518751 10 10 C10.39832031 10.68320313 10.79664062 11.36640625 11.20703125 12.0703125 C12 14 12 14 11 17 C9.5345138 15.10934188 8.07765297 13.21298003 6.625 11.3125 C6.2125 10.78205078 5.8 10.25160156 5.375 9.70507812 C3.00906418 6.59501734 1.25144944 3.70621566 0 0 Z " fill="#D0D1D4" transform="translate(55,155)"/>
<path d="M0 0 C0.33 0 0.66 0 1 0 C2.63778504 6.34641701 2.69902177 13.66728249 1 20 C0.01 20.66 -0.98 21.32 -2 22 C-1.85811015 19.45805839 -1.71160845 16.91652007 -1.5625 14.375 C-1.52318359 13.66214844 -1.48386719 12.94929688 -1.44335938 12.21484375 C-1.19690319 8.08196318 -0.76529947 4.07730976 0 0 Z " fill="#D3D3D5" transform="translate(263,104)"/>
<path d="M0 0 C8.32448255 -0.35733073 16.19378155 -0.24762523 24 3 C24.33 3.66 24.66 4.32 25 5 C16.50430168 4.42029353 8.31124051 2.76198299 0 1 C0 0.67 0 0.34 0 0 Z " fill="#EBF0F4" transform="translate(155,42)"/>
<path d="M0 0 C0.99 0 1.98 0 3 0 C0.6396648 6.53631285 0.6396648 6.53631285 -2 9 C-4.70136003 9.64190733 -7.20998895 9.81704846 -10 10 C-10 9.01 -10 8.02 -10 7 C-10.99 7.33 -11.98 7.66 -13 8 C-13.66 7.34 -14.32 6.68 -15 6 C-10.05632546 4.79422572 -6.79137588 5.3709322 -2 7 C-1.34 4.69 -0.68 2.38 0 0 Z " fill="#3F6597" transform="translate(201,31)"/>
<path d="M0 0 C-2.45570175 1.33838733 -4.91429916 2.67086232 -7.375 4 C-8.07367188 4.3815625 -8.77234375 4.763125 -9.4921875 5.15625 C-14.7734375 8 -14.7734375 8 -17 8 C-17.33 8.66 -17.66 9.32 -18 10 C-18.5775 9.38125 -19.155 8.7625 -19.75 8.125 C-21.80249821 6.18652947 -23.43366582 5.09985751 -26 4 C-26 3.34 -26 2.68 -26 2 C-22.73045798 2.56371414 -21.17424117 3.49962266 -19 6 C-14.05462109 4.56844295 -9.7674577 2.37856756 -5.26953125 -0.07421875 C-3 -1 -3 -1 0 0 Z " fill="#DAE3ED" transform="translate(118,34)"/>
<path d="M0 0 C0 1.65 0 3.3 0 5 C-0.99 5 -1.98 5 -3 5 C-3 5.66 -3 6.32 -3 7 C-2.01 7.33 -1.02 7.66 0 8 C-3.33333333 8 -6.66666667 8 -10 8 C-9.67 7.34 -9.34 6.68 -9 6 C-8.67 6 -8.34 6 -8 6 C-7.9175 5.21625 -7.835 4.4325 -7.75 3.625 C-7 1 -7 1 -5.125 -0.375 C-3 -1 -3 -1 0 0 Z " fill="#646CAC" transform="translate(221,257)"/>
<path d="M0 0 C3.3 0 6.6 0 10 0 C9.67 1.32 9.34 2.64 9 4 C8.34 4 7.68 4 7 4 C7 4.99 7 5.98 7 7 C6.34 7 5.68 7 5 7 C4.67 6.01 4.34 5.02 4 4 C3.01 4 2.02 4 1 4 C0.67 4.99 0.34 5.98 0 7 C0 4.69 0 2.38 0 0 Z " fill="#6C74B0" transform="translate(185,258)"/>
<path d="M0 0 C0 2.31 0 4.62 0 7 C-2.31 6.67 -4.62 6.34 -7 6 C-7 4.35 -7 2.7 -7 1 C-4.53721199 -0.231394 -2.7204945 -0.07159196 0 0 Z " fill="#A1A4CC" transform="translate(167,240)"/>
<path d="M0 0 C0.66 0.66 1.32 1.32 2 2 C-2.39453125 6.00390625 -2.39453125 6.00390625 -4 7 C-4.99 6.67 -5.98 6.34 -7 6 C-8.32 7.65 -9.64 9.3 -11 11 C-11.33 10.01 -11.66 9.02 -12 8 C-8.25572134 3.80186938 -5.1596937 1.92223883 0 0 Z " fill="#1B4784" transform="translate(145,125)"/>
<path d="M0 0 C1.6711528 5.51124859 -0.88624922 9.86660525 -3 15 C-3.99 14.34 -4.98 13.68 -6 13 C-5.58221009 7.2902045 -3.42453429 4.39042858 0 0 Z " fill="#164784" transform="translate(134,106)"/>
<path d="M0 0 C2.475 0.99 2.475 0.99 5 2 C5 3.32 5 4.64 5 6 C4.34 6 3.68 6 3 6 C3 6.66 3 7.32 3 8 C1.35 7.67 -0.3 7.34 -2 7 C-2.125 4.625 -2.125 4.625 -2 2 C-1.34 1.34 -0.68 0.68 0 0 Z " fill="#8287BC" transform="translate(83,257)"/>
<path d="M0 0 C0.33 0.66 0.66 1.32 1 2 C1.66 2 2.32 2 3 2 C3.38063221 4.3260857 3.71269945 6.66055264 4 9 C3 10 3 10 0.4375 10.0625 C-0.366875 10.041875 -1.17125 10.02125 -2 10 C-2 7.36 -2 4.72 -2 2 C-1.34 2 -0.68 2 0 2 C0 1.34 0 0.68 0 0 Z " fill="#9095C3" transform="translate(32,255)"/>
<path d="M0 0 C2.31 0 4.62 0 7 0 C7 2.31 7 4.62 7 7 C4.37886292 7 2.49064888 6.68707555 0 6 C0 4.02 0 2.04 0 0 Z " fill="#838ABD" transform="translate(139,258)"/>
<path d="M0 0 C1.65 0.33 3.3 0.66 5 1 C5.625 2.875 5.625 2.875 6 5 C5.34 5.66 4.68 6.32 4 7 C1.375 6.625 1.375 6.625 -1 6 C-1.33 5.01 -1.66 4.02 -2 3 C-1.34 2.01 -0.68 1.02 0 0 Z " fill="#737AB4" transform="translate(185,240)"/>
<path d="M0 0 C1.67542976 0.28604898 3.34385343 0.61781233 5 1 C6.125 4.75 6.125 4.75 5 7 C3.33388095 7.042721 1.66617115 7.04063832 0 7 C-1 6 -1 6 -1.125 3.5 C-1 1 -1 1 0 0 Z " fill="#49549F" transform="translate(92,240)"/>
<path d="M0 0 C1.67542976 0.28604898 3.34385343 0.61781233 5 1 C6.125 4.75 6.125 4.75 5 7 C3.33388095 7.042721 1.66617115 7.04063832 0 7 C-1 6 -1 6 -1.125 3.5 C-1 1 -1 1 0 0 Z " fill="#404B9B" transform="translate(136,240)"/>
<path d="M0 0 C2.62113708 0 4.50935112 0.31292445 7 1 C7 2.32 7 3.64 7 5 C8.32 5.33 9.64 5.66 11 6 C8.10765685 6.82638376 6.11257569 7 3 7 C2.67 6.34 2.34 5.68 2 5 C1.34 5.66 0.68 6.32 0 7 C0 4.69 0 2.38 0 0 Z " fill="#555FA6" transform="translate(153,258)"/>
<path d="M0 0 C0 2.31 0 4.62 0 7 C-2.31 6.67 -4.62 6.34 -7 6 C-7 4.35 -7 2.7 -7 1 C-4.53721199 -0.231394 -2.7204945 -0.07159196 0 0 Z " fill="#A1A6CD" transform="translate(217,240)"/>
<path d="M0 0 C1.67542976 0.28604898 3.34385343 0.61781233 5 1 C5.625 2.875 5.625 2.875 6 5 C5.34 5.66 4.68 6.32 4 7 C1.375 6.625 1.375 6.625 -1 6 C-1.042721 4.33388095 -1.04063832 2.66617115 -1 1 C-0.67 0.67 -0.34 0.34 0 0 Z " fill="#7279B4" transform="translate(145,240)"/>
<path d="M0 0 C1.67542976 0.28604898 3.34385343 0.61781233 5 1 C5 2.65 5 4.3 5 6 C2.625 6.625 2.625 6.625 0 7 C-0.66 6.34 -1.32 5.68 -2 5 C-1.46428571 1.46428571 -1.46428571 1.46428571 0 0 Z " fill="#838ABD" transform="translate(263,240)"/>
<path d="M0 0 C1.67542976 0.28604898 3.34385343 0.61781233 5 1 C5 2.65 5 4.3 5 6 C2.625 6.625 2.625 6.625 0 7 C-0.66 6.34 -1.32 5.68 -2 5 C-1.46428571 1.46428571 -1.46428571 1.46428571 0 0 Z " fill="#3D4899" transform="translate(203,240)"/>
<path d="M0 0 C-0.33 1.65 -0.66 3.3 -1 5 C-2.8125 5.6875 -2.8125 5.6875 -5 6 C-6.75 4.75 -6.75 4.75 -8 3 C-8 2.01 -8 1.02 -8 0 C-4.94736336 -0.98120464 -3.05263664 -0.98120464 0 0 Z " fill="#C8CAE0" transform="translate(219,229)"/>
<path d="M0 0 C1.65 0.99 3.3 1.98 5 3 C4.25 4.9375 4.25 4.9375 3 7 C0.875 7.75 0.875 7.75 -1 8 C-1.66 6.68 -2.32 5.36 -3 4 C-2.01 2.68 -1.02 1.36 0 0 Z " fill="#ECF0F4" transform="translate(138,130)"/>
<path d="M0 0 C0.66 0.33 1.32 0.66 2 1 C2 1.99 2 2.98 2 4 C1.443125 4.04125 0.88625 4.0825 0.3125 4.125 C-2.34839148 4.89205143 -2.34839148 4.89205143 -4.25 8.0625 C-5.83358899 10.14251187 -6.49336052 10.90471027 -9.09765625 11.39453125 C-11.3125 11.375 -11.3125 11.375 -15 11 C-15.66 9.68 -16.32 8.36 -17 7 C-15.515 7.99 -15.515 7.99 -14 9 C-10.42243314 9.00082535 -10.42243314 9.00082535 -7 8 C-5.3905664 5.83076342 -5 4.68076871 -5 2 C-3.35 2.33 -1.7 2.66 0 3 C0 2.01 0 1.02 0 0 Z " fill="#46519E" transform="translate(47,225)"/>
<path d="M0 0 C0.33 1.32 0.66 2.64 1 4 C-0.423125 4.0928125 -0.423125 4.0928125 -1.875 4.1875 C-6.34253398 4.79048005 -9.93675964 6.81879962 -13.86328125 8.94140625 C-16 10 -16 10 -18 10 C-18 8.02 -18 6.04 -18 4 C-17.67 4.99 -17.34 5.98 -17 7 C-11.39 4.69 -5.78 2.38 0 0 Z " fill="#446699" transform="translate(119,30)"/>
<path d="M0 0 C0.99 0.33 1.98 0.66 3 1 C2.44271087 4.34373475 1.64826111 7.03312999 0 10 C0.66 10.33 1.32 10.66 2 11 C-1 11 -1 11 -2.6875 9.5 C-3.120625 9.005 -3.55375 8.51 -4 8 C-2.87548273 5.0280615 -1.77706209 2.66559313 0 0 Z " fill="#184683" transform="translate(110,178)"/>
<path d="M0 0 C0.66 0 1.32 0 2 0 C2 1.98 2 3.96 2 6 C2.99 6 3.98 6 5 6 C5 4.02 5 2.04 5 0 C6.32 0.33 7.64 0.66 9 1 C8.34 1 7.68 1 7 1 C7 1.66 7 2.32 7 3 C7.66 3.33 8.32 3.66 9 4 C8.34 4 7.68 4 7 4 C7 4.66 7 5.32 7 6 C7.99 6.33 8.98 6.66 10 7 C6.7 7 3.4 7 0 7 C0 4.69 0 2.38 0 0 Z " fill="#646EAD" transform="translate(48,258)"/>
<path d="M0 0 C-0.33 1.32 -0.66 2.64 -1 4 C-1.99 4 -2.98 4 -4 4 C-4 3.01 -4 2.02 -4 1 C-4.66 1 -5.32 1 -6 1 C-5.64035156 1.81404297 -5.64035156 1.81404297 -5.2734375 2.64453125 C-4.82871094 3.71767578 -4.82871094 3.71767578 -4.375 4.8125 C-4.07335937 5.52019531 -3.77171875 6.22789062 -3.4609375 6.95703125 C-3.23277344 7.96830078 -3.23277344 7.96830078 -3 9 C-3.99 10.485 -3.99 10.485 -5 12 C-5.52973311 10.37787941 -6.04853107 8.75218416 -6.5625 7.125 C-6.85253906 6.22007812 -7.14257812 5.31515625 -7.44140625 4.3828125 C-8 2 -8 2 -7 0 C-3.86650268 -1.04449911 -3.01031744 -0.93423645 0 0 Z " fill="#2B518B" transform="translate(191,180)"/>
<path d="M0 0 C1.65 0 3.3 0 5 0 C5 0.66 5 1.32 5 2 C5.66 2.33 6.32 2.66 7 3 C5.68 3.33 4.36 3.66 3 4 C3 4.66 3 5.32 3 6 C3.99 6 4.98 6 6 6 C6 6.99 6 7.98 6 9 C4.35 8.67 2.7 8.34 1 8 C0.40267181 5.23735711 0 2.83967231 0 0 Z " fill="#32578E" transform="translate(215,161)"/>
<path d="M0 0 C-1.23941385 3.71824156 -2.9233963 4.67378745 -6 7 C-6.66 7.66 -7.32 8.32 -8 9 C-7.67 7.35 -7.34 5.7 -7 4 C-8.32 3.67 -9.64 3.34 -11 3 C-11 2.34 -11 1.68 -11 1 C-10.05125 1.020625 -9.1025 1.04125 -8.125 1.0625 C-4.96309465 0.99926189 -3.14866406 0 0 0 Z " fill="#C6D3E1" transform="translate(97,44)"/>
<path d="M0 0 C2.475 0.99 2.475 0.99 5 2 C5 3.98 5 5.96 5 8 C4.34 8 3.68 8 3 8 C3 8.66 3 9.32 3 10 C3.99 10.33 4.98 10.66 6 11 C5.01 11.33 4.02 11.66 3 12 C0.8125 10.6875 0.8125 10.6875 -1 9 C-1 7 -1 7 0.5 5.375 C0.995 4.92125 1.49 4.4675 2 4 C1.34 2.68 0.68 1.36 0 0 Z " fill="#A0B3CB" transform="translate(209,36)"/>
<path d="M0 0 C-5.20766425 2.78982013 -9.32824469 3.11733107 -15.25 3.0625 C-16.51328125 3.05347656 -17.7765625 3.04445312 -19.078125 3.03515625 C-20.04234375 3.02355469 -21.0065625 3.01195312 -22 3 C-22 2.67 -22 2.34 -22 2 C-18.89773201 1.46740456 -15.79298602 0.95097025 -12.6875 0.4375 C-11.80642578 0.28603516 -10.92535156 0.13457031 -10.01757812 -0.02148438 C-9.17001953 -0.16005859 -8.32246094 -0.29863281 -7.44921875 -0.44140625 C-6.27879028 -0.63778687 -6.27879028 -0.63778687 -5.0847168 -0.83813477 C-3 -1 -3 -1 0 0 Z " fill="#BCC3CB" transform="translate(185,204)"/>
<path d="M0 0 C6.625 -0.125 6.625 -0.125 10 1 C10 1.66 10 2.32 10 3 C9.34 3 8.68 3 8 3 C8 3.66 8 4.32 8 5 C6.02 5.99 6.02 5.99 4 7 C3.566875 5.824375 3.566875 5.824375 3.125 4.625 C2.15087746 1.90328368 2.15087746 1.90328368 0 0 Z " fill="#1B4B87" transform="translate(172,119)"/>
<path d="M0 0 C0.33 0 0.66 0 1 0 C1.33 7.92 1.66 15.84 2 24 C1.01 23.34 0.02 22.68 -1 22 C-1.2487793 19.75341797 -1.2487793 19.75341797 -1.07421875 16.9921875 C-0.99204102 15.51298828 -0.99204102 15.51298828 -0.90820312 14.00390625 C-0.83537109 12.97136719 -0.76253906 11.93882813 -0.6875 10.875 C-0.62626953 9.83472656 -0.56503906 8.79445313 -0.50195312 7.72265625 C-0.34837505 5.14727 -0.18048829 2.57361768 0 0 Z " fill="#DBD8D8" transform="translate(43,98)"/>
<path d="M0 0 C1.32 0.33 2.64 0.66 4 1 C4 1.66 4 2.32 4 3 C4.66 3 5.32 3 6 3 C5.67 4.32 5.34 5.64 5 7 C4.401875 6.835 3.80375 6.67 3.1875 6.5 C0.88655664 5.8885876 0.88655664 5.8885876 -2 6 C-1.34 5.01 -0.68 4.02 0 3 C0 2.01 0 1.02 0 0 Z " fill="#A1B4CD" transform="translate(83,52)"/>
<path d="M0 0 C2.475 0.495 2.475 0.495 5 1 C5.33 2.32 5.66 3.64 6 5 C4.02 5.99 4.02 5.99 2 7 C0 5 0 5 -0.125 2.375 C-0.08375 1.59125 -0.0425 0.8075 0 0 Z " fill="#1F4C87" transform="translate(168,187)"/>
<path d="M0 0 C0.66 0 1.32 0 2 0 C2 0.99 2 1.98 2 3 C2.99 3 3.98 3 5 3 C3.95125002 5.62187494 3.35068687 6.79371361 0.875 8.25 C0.25625 8.4975 -0.3625 8.745 -1 9 C-1.99 8.01 -2.98 7.02 -4 6 C-3.34 5.566875 -2.68 5.13375 -2 4.6875 C-1.01 3.8521875 -1.01 3.8521875 0 3 C0 2.01 0 1.02 0 0 Z " fill="#25518B" transform="translate(142,132)"/>
<path d="M0 0 C0.66 0.33 1.32 0.66 2 1 C2.28571429 8.42857143 2.28571429 8.42857143 0 12 C-0.66 11.67 -1.32 11.34 -2 11 C-1.85957123 9.35369672 -1.71250671 7.70795821 -1.5625 6.0625 C-1.48128906 5.14597656 -1.40007813 4.22945313 -1.31640625 3.28515625 C-1 1 -1 1 0 0 Z " fill="#D3D3D5" transform="translate(44,85)"/>
<path d="M0 0 C1.17369141 0.42539062 1.17369141 0.42539062 2.37109375 0.859375 C3.15613281 1.13265625 3.94117188 1.4059375 4.75 1.6875 C6.80859375 2.609375 6.80859375 2.609375 8.80859375 4.609375 C8.14859375 5.269375 7.48859375 5.929375 6.80859375 6.609375 C2.84859375 4.959375 -1.11140625 3.309375 -5.19140625 1.609375 C-2.19140625 -0.390625 -2.19140625 -0.390625 0 0 Z " fill="#DBE4EB" transform="translate(182.19140625,46.390625)"/>
<path d="M0 0 C2.375 -0.125 2.375 -0.125 5 0 C5.66 0.66 6.32 1.32 7 2 C6.625 4.125 6.625 4.125 6 6 C5.01 6 4.02 6 3 6 C3 5.01 3 4.02 3 3 C2.34 3 1.68 3 1 3 C0.67 3.66 0.34 4.32 0 5 C-0.33 4.01 -0.66 3.02 -1 2 C-0.67 1.34 -0.34 0.68 0 0 Z " fill="#A1B3CC" transform="translate(150,21)"/>
<path d="M0 0 C2.31 0 4.62 0 7 0 C7 2.64 7 5.28 7 8 C6.34 8 5.68 8 5 8 C5 6.02 5 4.04 5 2 C4.34 2 3.68 2 3 2 C3 3.98 3 5.96 3 8 C2.67 8 2.34 8 2 8 C2 6.02 2 4.04 2 2 C1.34 2 0.68 2 0 2 C0 1.34 0 0.68 0 0 Z " fill="#7D84B9" transform="translate(73,257)"/>
<path d="M0 0 C2.475 0.495 2.475 0.495 5 1 C4.67 2.98 4.34 4.96 4 7 C2.68 7 1.36 7 0 7 C0 4.69 0 2.38 0 0 Z " fill="#757DB6" transform="translate(260,258)"/>
<path d="M0 0 C1.65 0 3.3 0 5 0 C5 2.31 5 4.62 5 7 C3.35 7 1.7 7 0 7 C0 4.69 0 2.38 0 0 Z " fill="#6C73B0" transform="translate(268,258)"/>
<path d="M0 0 C0.66 0 1.32 0 2 0 C2 0.99 2 1.98 2 3 C2.99 2.01 3.98 1.02 5 0 C5.99 0.33 6.98 0.66 8 1 C7.34 1 6.68 1 6 1 C6 2.65 6 4.3 6 6 C4.02 6.33 2.04 6.66 0 7 C0 4.69 0 2.38 0 0 Z " fill="#7079B3" transform="translate(192,240)"/>
<path d="M0 0 C0.99 0.33 1.98 0.66 3 1 C3 1.99 3 2.98 3 4 C4.11375 3.835 5.2275 3.67 6.375 3.5 C10 3 10 3 12 3 C12 3.66 12 4.32 12 5 C7.05 5 2.1 5 -3 5 C-2.01 4.67 -1.02 4.34 0 4 C0 2.68 0 1.36 0 0 Z " fill="#354395" transform="translate(110,224)"/>
<path d="M0 0 C-0.185625 0.598125 -0.37125 1.19625 -0.5625 1.8125 C-1.22093687 4.16408762 -1.22093687 4.16408762 0 7 C-1.65 7 -3.3 7 -5 7 C-5.33 5.02 -5.66 3.04 -6 1 C-4 0 -4 0 0 0 Z " fill="#6681AA" transform="translate(140,187)"/>
<path d="M0 0 C1.32 0 2.64 0 4 0 C3.01 3.3 2.02 6.6 1 10 C0.01 10 -0.98 10 -2 10 C-3 8 -3 8 -2.44140625 6.0546875 C-2.15136719 5.33539063 -1.86132812 4.61609375 -1.5625 3.875 C-1.27503906 3.15054688 -0.98757812 2.42609375 -0.69140625 1.6796875 C-0.46324219 1.12539062 -0.23507813 0.57109375 0 0 Z " fill="#CAD5E2" transform="translate(127,96)"/>
<path d="M0 0 C2.0625 0.4375 2.0625 0.4375 4 1 C3.01 1.495 3.01 1.495 2 2 C3.81222534 4.0624994 3.81222534 4.0624994 6 6 C6.99 6 7.98 6 9 6 C8.67 7.32 8.34 8.64 8 10 C1.35384615 6.67692308 1.35384615 6.67692308 -0.4375 3.25 C-0.623125 2.5075 -0.80875 1.765 -1 1 C-0.67 0.67 -0.34 0.34 0 0 Z " fill="#D9E1EC" transform="translate(206,41)"/>
<path d="M0 0 C1.1577506 3.47325181 1.06866652 6.36067448 1 10 C-0.98 10 -2.96 10 -5 10 C-4.67 8.68 -4.34 7.36 -4 6 C-3.01 6 -2.02 6 -1 6 C-1.020625 5.195625 -1.04125 4.39125 -1.0625 3.5625 C-1 1 -1 1 0 0 Z " fill="#6069AA" transform="translate(212,218)"/>
<path d="M0 0 C2.97 0.495 2.97 0.495 6 1 C6.33 1.99 6.66 2.98 7 4 C6.67 4.66 6.34 5.32 6 6 C1.25 4.125 1.25 4.125 -1 3 C-0.67 2.01 -0.34 1.02 0 0 Z " fill="#1B4984" transform="translate(228,148)"/>
<path d="M0 0 C0.33 0 0.66 0 1 0 C1.33 1.65 1.66 3.3 2 5 C2.99 5.33 3.98 5.66 5 6 C5 4.02 5 2.04 5 0 C5.66 0 6.32 0 7 0 C8.125 4.75 8.125 4.75 7 7 C4.69 7 2.38 7 0 7 C0 4.69 0 2.38 0 0 Z " fill="#676EAE" transform="translate(196,258)"/>
<path d="M0 0 C0.99 0.33 1.98 0.66 3 1 C3 2.98 3 4.96 3 7 C1.68 7.33 0.36 7.66 -1 8 C-1 4.88742431 -0.82638376 2.89234315 0 0 Z " fill="#6971AF" transform="translate(172,257)"/>
<path d="M0 0 C1.32 0 2.64 0 4 0 C6.1519437 3.22791555 6.20086443 4.28400809 6 8 C4.68 8.33 3.36 8.66 2 9 C1.67 8.01 1.34 7.02 1 6 C1.66 5.34 2.32 4.68 3 4 C3 3.34 3 2.68 3 2 C2.01 2 1.02 2 0 2 C0 1.34 0 0.68 0 0 Z " fill="#7379B5" transform="translate(188,219)"/>
<path d="M0 0 C0.66 0 1.32 0 2 0 C2 3.63 2 7.26 2 11 C0.68 10.34 -0.64 9.68 -2 9 C-2 8.01 -2 7.02 -2 6 C-1.34 6 -0.68 6 0 6 C0 4.02 0 2.04 0 0 Z " fill="#D9E2EB" transform="translate(150,186)"/>
<path d="M0 0 C3.3 0.66 6.6 1.32 10 2 C10.33 2.99 10.66 3.98 11 5 C9.35 5 7.7 5 6 5 C6 4.34 6 3.68 6 3 C4.02 3.33 2.04 3.66 0 4 C0 2.68 0 1.36 0 0 Z " fill="#DBE3EB" transform="translate(221,155)"/>
<path d="M0 0 C1.32 0.66 2.64 1.32 4 2 C3.50168276 5.68754757 2.89932357 7.60490662 0 10 C-0.99 9.34 -1.98 8.68 -3 8 C-3 7.34 -3 6.68 -3 6 C-1.68 6.33 -0.36 6.66 1 7 C0.67 4.69 0.34 2.38 0 0 Z " fill="#E3E9F0" transform="translate(233,147)"/>
<path d="M0 0 C0.33 2.31 0.66 4.62 1 7 C-2.36591866 5.55746343 -4.51047079 3.66735273 -7 1 C-4.50935112 0.31292445 -2.62113708 0 0 0 Z " fill="#124482" transform="translate(100,34)"/>
<path d="M0 0 C1.66666667 0 3.33333333 0 5 0 C5 2.31 5 4.62 5 7 C3.33333333 7 1.66666667 7 0 7 C0 4.69 0 2.38 0 0 Z " fill="#6069AB" transform="translate(61,258)"/>
<path d="M0 0 C0 3 0 3 -1.75 4.82421875 C-2.4925 5.43910156 -3.235 6.05398437 -4 6.6875 C-4.7425 7.31011719 -5.485 7.93273437 -6.25 8.57421875 C-6.8275 9.04472656 -7.405 9.51523438 -8 10 C-8.66 9.67 -9.32 9.34 -10 9 C-7.34051718 5.35552354 -4.96548305 3.14350435 -1 1 C-0.67 0.67 -0.34 0.34 0 0 Z " fill="#EAF0F4" transform="translate(208,152)"/>
<path d="M0 0 C0 0.99 0 1.98 0 3 C-4.95 5.475 -4.95 5.475 -10 8 C-10 6.68 -10 5.36 -10 4 C-6.7 2.68 -3.4 1.36 0 0 Z " fill="#204884" transform="translate(74,138)"/>
<path d="M0 0 C1.32 0.33 2.64 0.66 4 1 C4 2.65 4 4.3 4 6 C2.35 6.33 0.7 6.66 -1 7 C-2 4 -2 4 -1.0625 1.8125 C-0.5365625 0.9153125 -0.5365625 0.9153125 0 0 Z " fill="#8DA1C0" transform="translate(233,133)"/>
<path d="M0 0 C0.33 0 0.66 0 1 0 C1.3125 2.6875 1.3125 2.6875 1 6 C-1.375 8.875 -1.375 8.875 -4 11 C-4.66 11 -5.32 11 -6 11 C-4.55007731 6.89188572 -2.54592427 3.53144334 0 0 Z " fill="#214984" transform="translate(140,80)"/>
<path d="M0 0 C0.99 0 1.98 0 3 0 C3 0.99 3 1.98 3 3 C2.360625 3.45375 1.72125 3.9075 1.0625 4.375 C-1.24764553 5.8662773 -1.24764553 5.8662773 -1.75 8.6875 C-1.8325 9.450625 -1.915 10.21375 -2 11 C-2.66 10.67 -3.32 10.34 -4 10 C-4 9.34 -4 8.68 -4 8 C-4.99 7.67 -5.98 7.34 -7 7 C-6.21625 6.5875 -5.4325 6.175 -4.625 5.75 C-1.94108344 3.9607223 -1.11901051 2.95011861 0 0 Z " fill="#CAD6E3" transform="translate(229,55)"/>
<path d="M0 0 C1.953125 0.35807292 3.90625 0.71614583 5.859375 1.07421875 C4.869375 2.55921875 4.869375 2.55921875 3.859375 4.07421875 C0.559375 3.74421875 -2.740625 3.41421875 -6.140625 3.07421875 C-2.140625 0.07421875 -2.140625 0.07421875 0 0 Z " fill="#C3C8CF" transform="translate(174.140625,3.92578125)"/>
<path d="M0 0 C0 2.31 0 4.62 0 7 C-1.65 6.67 -3.3 6.34 -5 6 C-5 4.35 -5 2.7 -5 1 C-1.125 0 -1.125 0 0 0 Z " fill="#FDFDFC" transform="translate(51,240)"/>
<path d="M0 0 C1.32 0 2.64 0 4 0 C3.8125 1.8125 3.8125 1.8125 3 4 C0.4375 5.75 0.4375 5.75 -2 7 C-1.125 1.125 -1.125 1.125 0 0 Z " fill="#EAEFF2" transform="translate(153,90)"/>
<path d="M0 0 C0.99 0 1.98 0 3 0 C2.67 1.65 2.34 3.3 2 5 C1.01 4.67 0.02 4.34 -1 4 C-1 6.64 -1 9.28 -1 12 C-1.33 12 -1.66 12 -2 12 C-2.05395478 10.37536158 -2.09277195 8.75021459 -2.125 7.125 C-2.14820313 6.22007812 -2.17140625 5.31515625 -2.1953125 4.3828125 C-2 2 -2 2 0 0 Z " fill="#3A4698" transform="translate(154,225)"/>
<path d="M0 0 C2 2 2 2 2 6 C0.02 6 -1.96 6 -4 6 C-4 5.01 -4 4.02 -4 3 C-2.68 2.67 -1.36 2.34 0 2 C0 1.34 0 0.68 0 0 Z " fill="#6870AF" transform="translate(130,222)"/>
<path d="M0 0 C1.98 0 3.96 0 6 0 C6.33 1.65 6.66 3.3 7 5 C5.35 5.33 3.7 5.66 2 6 C2.99 5.67 3.98 5.34 5 5 C5 4.01 5 3.02 5 2 C3.68 2 2.36 2 1 2 C0.67 2.99 0.34 3.98 0 5 C0 3.35 0 1.7 0 0 Z " fill="#E1E8EF" transform="translate(135,185)"/>
<path d="M0 0 C0.99 0.33 1.98 0.66 3 1 C2.01 1.495 2.01 1.495 1 2 C1 2.66 1 3.32 1 4 C-1.30368736 5.06652192 -3.64018187 6.06421005 -6 7 C-6.66 6.67 -7.32 6.34 -8 6 C-7.67 4.68 -7.34 3.36 -7 2 C-6.67 2.66 -6.34 3.32 -6 4 C-5.34 4 -4.68 4 -4 4 C-3.34 3.01 -2.68 2.02 -2 1 C-1.34 0.67 -0.68 0.34 0 0 Z " fill="#577BA6" transform="translate(201,179)"/>
<path d="M0 0 C-1 3 -1 3 -3.25 4.1875 C-5.99791147 4.99938294 -8.15447889 5.16260121 -11 5 C-9.04754573 1.09509146 -4.11653518 0 0 0 Z " fill="#E8EDF3" transform="translate(186,168)"/>
<path d="M0 0 C0 0.66 0 1.32 0 2 C-1.6796875 3.2890625 -1.6796875 3.2890625 -3.875 4.625 C-4.95394531 5.29402344 -4.95394531 5.29402344 -6.0546875 5.9765625 C-8 7 -8 7 -10 7 C-10 6.01 -10 5.02 -10 4 C-3.375 0 -3.375 0 0 0 Z " fill="#D5DFEA" transform="translate(81,150)"/>
<path d="M0 0 C0.75 1.625 0.75 1.625 1 4 C-0.9375 7.25 -0.9375 7.25 -3 10 C-3.66 9.67 -4.32 9.34 -5 9 C-3.7508258 5.54074837 -2.32472205 2.85306797 0 0 Z " fill="#E6ECF1" transform="translate(219,135)"/>
<path d="M0 0 C0.33 0.66 0.66 1.32 1 2 C0.24172908 3.17487036 -0.53207755 4.33972592 -1.3125 5.5 C-1.74175781 6.1496875 -2.17101562 6.799375 -2.61328125 7.46875 C-3.07089844 7.9740625 -3.52851563 8.479375 -4 9 C-4.99 9 -5.98 9 -7 9 C-5.64978174 4.58110387 -3.73884332 2.65654657 0 0 Z " fill="#EAF0F5" transform="translate(140,78)"/>
<path d="M0 0 C0.763125 0.350625 1.52625 0.70125 2.3125 1.0625 C5.04759379 2.32360884 5.04759379 2.32360884 8 1 C7.67 2.32 7.34 3.64 7 5 C3.62294375 4.46274105 0.303314 3.88935377 -3 3 C-2.01 2.67 -1.02 2.34 0 2 C0 1.34 0 0.68 0 0 Z " fill="#DDE5ED" transform="translate(188,33)"/>
<path d="M0 0 C2.82249951 1.03491649 3.83374226 1.69915265 5.3125 4.375 C6.02770914 7.10579853 5.9659657 8.39189261 5 11 C2.36620292 7.34666857 0.53115106 4.51478398 0 0 Z " fill="#C5D2E1" transform="translate(122,19)"/>
<path d="M0 0 C0.66 0 1.32 0 2 0 C2 2.31 2 4.62 2 7 C0.02 7 -1.96 7 -4 7 C-3.67 6.01 -3.34 5.02 -3 4 C-2.01 4 -1.02 4 0 4 C0 2.68 0 1.36 0 0 Z " fill="#7C83B9" transform="translate(156,240)"/>
<path d="M0 0 C0.66 0 1.32 0 2 0 C2 2.31 2 4.62 2 7 C0.02 7 -1.96 7 -4 7 C-4 6.01 -4 5.02 -4 4 C-2.68 4 -1.36 4 0 4 C0 2.68 0 1.36 0 0 Z " fill="#7B82B9" transform="translate(71,240)"/>
<path d="M0 0 C0.33 0.99 0.66 1.98 1 3 C-1.75924185 4.80411967 -2.88972103 5.0127245 -6.25 4.625 C-7.1575 4.41875 -8.065 4.2125 -9 4 C-6.43425105 1.43425105 -3.68548192 0 0 0 Z " fill="#BDC4CB" transform="translate(203,196)"/>
<path d="M0 0 C0.66 0 1.32 0 2 0 C1.125 7.625 1.125 7.625 0 11 C-0.66 11 -1.32 11 -2 11 C-1.125 3.375 -1.125 3.375 0 0 Z " fill="#C9D6E3" transform="translate(131,184)"/>
<path d="M0 0 C1.67542976 0.28604898 3.34385343 0.61781233 5 1 C4.67 2.32 4.34 3.64 4 5 C3.01 4.01 2.02 3.02 1 2 C1 3.65 1 5.3 1 7 C0.01 6.34 -0.98 5.68 -2 5 C-1.125 1.125 -1.125 1.125 0 0 Z " fill="#D3DDE8" transform="translate(101,172)"/>
<path d="M0 0 C1.4835001 0.42257276 2.96176424 0.86356322 4.4375 1.3125 C5.67306641 1.67794922 5.67306641 1.67794922 6.93359375 2.05078125 C7.61550781 2.36402344 8.29742187 2.67726562 9 3 C9.33 3.99 9.66 4.98 10 6 C6.05879291 5.43697042 3.2491277 4.3208055 0 2 C0 1.34 0 0.68 0 0 Z " fill="#DCE4EC" transform="translate(230,141)"/>
<path d="M0 0 C-1 3 -1 3 -3.25 4.1875 C-5.99791147 4.99938294 -8.15447889 5.16260121 -11 5 C-11 4.34 -11 3.68 -11 3 C-9.54293274 2.49632243 -8.08429904 1.99717444 -6.625 1.5 C-5.81289062 1.2215625 -5.00078125 0.943125 -4.1640625 0.65625 C-2 0 -2 0 0 0 Z " fill="#DBE3EB" transform="translate(74,137)"/>
<path d="M0 0 C0.66 0 1.32 0 2 0 C1.33333333 3.33333333 0.66666667 6.66666667 0 10 C-0.33 9.01 -0.66 8.02 -1 7 C-2.32 7 -3.64 7 -5 7 C-5 6.01 -5 5.02 -5 4 C-3.35 3.67 -1.7 3.34 0 3 C0 2.01 0 1.02 0 0 Z " fill="#184683" transform="translate(244,133)"/>
<path d="M0 0 C0.33 0.66 0.66 1.32 1 2 C1.66 2 2.32 2 3 2 C1.68938409 6.23429756 0.05643741 10.07407404 -2 14 C-3.21065165 10.36804504 -2.62784815 8.93468371 -1.5625 5.3125 C-1.27503906 4.31863281 -0.98757812 3.32476562 -0.69140625 2.30078125 C-0.46324219 1.54152344 -0.23507813 0.78226562 0 0 Z " fill="#C4D1E1" transform="translate(202,115)"/>
<path d="M0 0 C1.65 0 3.3 0 5 0 C5.66 1.65 6.32 3.3 7 5 C6.34 5 5.68 5 5 5 C4.67 5.99 4.34 6.98 4 8 C3.01 7.67 2.02 7.34 1 7 C1 6.34 1 5.68 1 5 C1.99 5 2.98 5 4 5 C4 4.34 4 3.68 4 3 C2.68 2.34 1.36 1.68 0 1 C0 0.67 0 0.34 0 0 Z " fill="#C9CAE0" transform="translate(165,257)"/>
<path d="M0 0 C1.32 0 2.64 0 4 0 C4 2.31 4 4.62 4 7 C2.68 7 1.36 7 0 7 C0 4.69 0 2.38 0 0 Z " fill="#5962A8" transform="translate(51,240)"/>
<path d="M0 0 C1.08667969 0.29197266 1.08667969 0.29197266 2.1953125 0.58984375 C2.74960938 0.74582031 3.30390625 0.90179688 3.875 1.0625 C3.545 1.7225 3.215 2.3825 2.875 3.0625 C-3.27734375 2.4765625 -3.27734375 2.4765625 -5.125 2.0625 C-5.455 1.4025 -5.785 0.7425 -6.125 0.0625 C-3.57797384 -1.21101308 -2.6967055 -0.73941925 0 0 Z " fill="#C5C9CF" transform="translate(117.125,200.9375)"/>
<path d="M0 0 C0.33 0 0.66 0 1 0 C0.67 2.31 0.34 4.62 0 7 C-3 6 -3 6 -5 4 C-5 3.01 -5 2.02 -5 1 C-2.525 1.495 -2.525 1.495 0 2 C0 1.34 0 0.68 0 0 Z " fill="#355D92" transform="translate(124,186)"/>
<path d="M0 0 C2.875 -0.125 2.875 -0.125 6 0 C6.66 0.66 7.32 1.32 8 2 C9.31747324 2.69748583 10.64914193 3.36959957 12 4 C11.34 4 10.68 4 10 4 C9.67 4.66 9.34 5.32 9 6 C6.03 4.35 3.06 2.7 0 1 C0 0.67 0 0.34 0 0 Z " fill="#224B86" transform="translate(208,169)"/>
<path d="M0 0 C3.36513174 0.58019513 4.63451473 1.63451473 7 4 C9.10332891 4.71447643 9.10332891 4.71447643 11 5 C10.01 5.495 10.01 5.495 9 6 C8.67 6.66 8.34 7.32 8 8 C7.13375 7.071875 7.13375 7.071875 6.25 6.125 C4.19750179 4.18652947 2.56633418 3.09985751 0 2 C0 1.34 0 0.68 0 0 Z " fill="#CDD9E5" transform="translate(92,36)"/>
<path d="M0 0 C0.66 0.33 1.32 0.66 2 1 C2.33 1.99 2.66 2.98 3 4 C3.99 4.33 4.98 4.66 6 5 C6 5.66 6 6.32 6 7 C3.36 7.33 0.72 7.66 -2 8 C-1.67 7.34 -1.34 6.68 -1 6 C-0.34 6 0.32 6 1 6 C0.67 4.02 0.34 2.04 0 0 Z " fill="#3B4797" transform="translate(53,222)"/>
<path d="M0 0 C1.32 0.33 2.64 0.66 4 1 C3.67 1.66 3.34 2.32 3 3 C2.34 3 1.68 3 1 3 C0.01 4.98 -0.98 6.96 -2 9 C-2.66 9 -3.32 9 -4 9 C-3.35455571 5.51460083 -1.89865603 2.97180943 0 0 Z " fill="#E3E9F1" transform="translate(114,179)"/>
<path d="M0 0 C1.32 0.33 2.64 0.66 4 1 C4 1.66 4 2.32 4 3 C4.66 3.33 5.32 3.66 6 4 C4.68 4.33 3.36 4.66 2 5 C2 6.65 2 8.3 2 10 C1.67 10 1.34 10 1 10 C1.020625 8.906875 1.04125 7.81375 1.0625 6.6875 C1.18544452 3.05615809 1.18544452 3.05615809 0 0 Z " fill="#7690B4" transform="translate(93,169)"/>
<path d="M0 0 C1.98 0 3.96 0 6 0 C5.34 1.32 4.68 2.64 4 4 C2.35 3.67 0.7 3.34 -1 3 C-0.67 2.01 -0.34 1.02 0 0 Z " fill="#1A4682" transform="translate(142,88)"/>
<path d="M0 0 C0.66 0 1.32 0 2 0 C2.66 2.31 3.32 4.62 4 7 C3.38125 6.814375 2.7625 6.62875 2.125 6.4375 C-0.04160178 5.76313824 -0.04160178 5.76313824 -2 7 C-1.34 4.69 -0.68 2.38 0 0 Z " fill="#4F59A2" transform="translate(69,258)"/>
<path d="M0 0 C1.32 0.33 2.64 0.66 4 1 C4 1.99 4 2.98 4 4 C3.34 4 2.68 4 2 4 C2 4.66 2 5.32 2 6 C2.66 6.33 3.32 6.66 4 7 C2.68 7 1.36 7 0 7 C0 4.69 0 2.38 0 0 Z " fill="#5059A3" transform="translate(222,258)"/>
<path d="M0 0 C1.32 0.33 2.64 0.66 4 1 C4 1.99 4 2.98 4 4 C3.34 4 2.68 4 2 4 C2 4.66 2 5.32 2 6 C2.66 6.33 3.32 6.66 4 7 C2.68 7 1.36 7 0 7 C0 4.69 0 2.38 0 0 Z " fill="#525CA4" transform="translate(147,258)"/>
<path d="M0 0 C0.66 0.33 1.32 0.66 2 1 C2 2.65 2 4.3 2 6 C0.35 6.66 -1.3 7.32 -3 8 C-3 6.68 -3 5.36 -3 4 C-2.34 3.67 -1.68 3.34 -1 3 C-0.67 2.01 -0.34 1.02 0 0 Z " fill="#5F69AA" transform="translate(236,221)"/>
<path d="M0 0 C0.66 0 1.32 0 2 0 C2 0.99 2 1.98 2 3 C2.99 3.33 3.98 3.66 5 4 C5.33 5.65 5.66 7.3 6 9 C5.01 9 4.02 9 3 9 C2.01 6.03 1.02 3.06 0 0 Z " fill="#E1E8EF" transform="translate(185,181)"/>
<path d="M0 0 C0 3.58912412 -0.66436554 4.10857029 -3 6.6875 C-3.556875 7.31011719 -4.11375 7.93273437 -4.6875 8.57421875 C-5.120625 9.04472656 -5.55375 9.51523438 -6 10 C-6.99 9.67 -7.98 9.34 -9 9 C-6.03 6.03 -3.06 3.06 0 0 Z " fill="#18407F" transform="translate(162,127)"/>
<path d="M0 0 C0.33 0 0.66 0 1 0 C1.33 2.64 1.66 5.28 2 8 C0.68 8.99 -0.64 9.98 -2 11 C-1 3.57142857 -1 3.57142857 0 0 Z " fill="#184381" transform="translate(129,99)"/>
<path d="M0 0 C0.66 0 1.32 0 2 0 C2.66 2.31 3.32 4.62 4 7 C2.68 6.34 1.36 5.68 0 5 C0 5.66 0 6.32 0 7 C-0.66 6.67 -1.32 6.34 -2 6 C-1.34 4.02 -0.68 2.04 0 0 Z " fill="#4B55A0" transform="translate(180,258)"/>
<path d="M0 0 C0.99 0.33 1.98 0.66 3 1 C3 3.33333333 3 5.66666667 3 8 C1.68 7.67 0.36 7.34 -1 7 C-0.01 6.34 0.98 5.68 2 5 C1.01 4.67 0.02 4.34 -1 4 C-0.67 2.68 -0.34 1.36 0 0 Z " fill="#4A559F" transform="translate(134,257)"/>
<path d="M0 0 C1.32 0.33 2.64 0.66 4 1 C3.67 1.99 3.34 2.98 3 4 C3 4.99 3 5.98 3 7 C2.01 7 1.02 7 0 7 C0 4.69 0 2.38 0 0 Z " fill="#656CAD" transform="translate(86,240)"/>
<path d="M0 0 C0.33 0 0.66 0 1 0 C0.67 2.97 0.34 5.94 0 9 C-0.99 9 -1.98 9 -3 9 C-2.25 2.25 -2.25 2.25 0 0 Z " fill="#DDE4EC" transform="translate(84,90)"/>
<path d="M0 0 C0.33 0.99 0.66 1.98 1 3 C4.0745356 2.2236068 4.0745356 2.2236068 6 0 C6 0.66 6 1.32 6 2 C7.32 2.33 8.64 2.66 10 3 C6.1496895 5.56687367 4.41430237 4.83288724 0 4 C0 2.68 0 1.36 0 0 Z " fill="#184784" transform="translate(218,56)"/>
<path d="M0 0 C-0.33 0.66 -0.66 1.32 -1 2 C-3.3140622 2.73075648 -5.64828869 3.40138258 -8 4 C-8 3.34 -8 2.68 -8 2 C-8.66 1.67 -9.32 1.34 -10 1 C-6.52674819 -0.1577506 -3.63932552 -0.06866652 0 0 Z " fill="#D6DFE9" transform="translate(136,44)"/>
<path d="M0 0 C1.32 0.33 2.64 0.66 4 1 C4 1.66 4 2.32 4 3 C4.99 2.67 5.98 2.34 7 2 C6.67 2.99 6.34 3.98 6 5 C5.34 4.67 4.68 4.34 4 4 C3.67 4.66 3.34 5.32 3 6 C2.01 5.34 1.02 4.68 0 4 C0 2.68 0 1.36 0 0 Z " fill="#2D5A92" transform="translate(184,29)"/>
<path d="M0 0 C0.66 0 1.32 0 2 0 C1.34 2.64 0.68 5.28 0 8 C-1.32 7.67 -2.64 7.34 -4 7 C-3.01 7 -2.02 7 -1 7 C-1.75150023 3.72226496 -1.75150023 3.72226496 -5 2 C-3.35 2 -1.7 2 0 2 C0 1.34 0 0.68 0 0 Z " fill="#224D86" transform="translate(124,26)"/>
<path d="M0 0 C1.32 0.33 2.64 0.66 4 1 C4 1.99 4 2.98 4 4 C3.01 4 2.02 4 1 4 C1 4.66 1 5.32 1 6 C1.99 6.33 2.98 6.66 4 7 C2.68 7 1.36 7 0 7 C0 4.69 0 2.38 0 0 Z " fill="#4A549F" transform="translate(165,258)"/>
<path d="M0 0 C0.66 0.33 1.32 0.66 2 1 C1.67 2.32 1.34 3.64 1 5 C1 4.34 1 3.68 1 3 C0.01 3.495 0.01 3.495 -1 4 C-1 4.66 -1 5.32 -1 6 C-1.99 5.67 -2.98 5.34 -4 5 C-3.6875 3.0625 -3.6875 3.0625 -3 1 C-2.01 0.67 -1.02 0.34 0 0 Z " fill="#DDDEEC" transform="translate(252,258)"/>
<path d="M0 0 C0.99 0.33 1.98 0.66 3 1 C2.34 1 1.68 1 1 1 C1.66 2.98 2.32 4.96 3 7 C1.35 6.67 -0.3 6.34 -2 6 C-2 4.35 -2 2.7 -2 1 C-1.34 0.67 -0.68 0.34 0 0 Z " fill="#5863A7" transform="translate(212,240)"/>
<path d="M0 0 C0.99 0.33 1.98 0.66 3 1 C3.33 4.3 3.66 7.6 4 11 C0.88776687 6.85035583 0.47996422 4.99162787 0 0 Z " fill="#ECF1F4" transform="translate(206,169)"/>
<path d="M0 0 C2.97 0.33 5.94 0.66 9 1 C8.67 2.32 8.34 3.64 8 5 C7.01 5 6.02 5 5 5 C4.67 4.34 4.34 3.68 4 3 C1.98330173 1.86649466 1.98330173 1.86649466 0 1 C0 0.67 0 0.34 0 0 Z " fill="#1C4B85" transform="translate(234,130)"/>
<path d="M0 0 C0.66 1.32 1.32 2.64 2 4 C0.68 4.99 -0.64 5.98 -2 7 C-2.66 6.01 -3.32 5.02 -4 4 C-2.68 3.34 -1.36 2.68 0 2 C0 1.34 0 0.68 0 0 Z " fill="#124281" transform="translate(135,96)"/>
<path d="M0 0 C0 1.98 0 3.96 0 6 C-0.99 6.495 -0.99 6.495 -2 7 C-2.66 6.67 -3.32 6.34 -4 6 C-4 5.34 -4 4.68 -4 4 C-3.34 4 -2.68 4 -2 4 C-2 3.34 -2 2.68 -2 2 C-2.66 1.67 -3.32 1.34 -4 1 C-2 0 -2 0 0 0 Z " fill="#C7CAE0" transform="translate(153,258)"/>
<path d="M0 0 C0.99 0 1.98 0 3 0 C3.33 0.99 3.66 1.98 4 3 C3.67 3.66 3.34 4.32 3 5 C1.68 4.67 0.36 4.34 -1 4 C-0.67 2.68 -0.34 1.36 0 0 Z " fill="#B0B2D3" transform="translate(137,241)"/>
<path d="M0 0 C1.65 0 3.3 0 5 0 C5 2.31 5 4.62 5 7 C2.47411298 4.63707344 1.11179163 3.33537489 0 0 Z " fill="#4954A0" transform="translate(235,240)"/>
<path d="M0 0 C0.99 0 1.98 0 3 0 C3 2.31 3 4.62 3 7 C2.01 7 1.02 7 0 7 C0 4.69 0 2.38 0 0 Z " fill="#5A63A8" transform="translate(179,240)"/>
<path d="M0 0 C-0.33 1.32 -0.66 2.64 -1 4 C-1.99 4 -2.98 4 -4 4 C-4 3.01 -4 2.02 -4 1 C-4.66 0.67 -5.32 0.34 -6 0 C-3.50907189 -1.24546405 -2.58919267 -0.7767578 0 0 Z " fill="#788FB4" transform="translate(191,180)"/>
<path d="M0 0 C1.85776765 3.13498292 2.20140476 5.37471432 2 9 C0 6 0 6 0 4 C-0.99 4 -1.98 4 -3 4 C-2.67 3.01 -2.34 2.02 -2 1 C-1.34 0.67 -0.68 0.34 0 0 Z " fill="#E1E9F0" transform="translate(81,58)"/>
<path d="M0 0 C1.32 0 2.64 0 4 0 C3.67 1.32 3.34 2.64 3 4 C2.34 4 1.68 4 1 4 C0.67 4.99 0.34 5.98 0 7 C0 4.69 0 2.38 0 0 Z " fill="#5A64A8" transform="translate(191,258)"/>
<path d="M0 0 C0.99 0.33 1.98 0.66 3 1 C2.67 2.32 2.34 3.64 2 5 C1.01 5 0.02 5 -1 5 C-1.33 4.01 -1.66 3.02 -2 2 C-1.34 1.34 -0.68 0.68 0 0 Z " fill="#B2B5D4" transform="translate(204,241)"/>
<path d="M0 0 C-0.66 0.66 -1.32 1.32 -2 2 C-2.53625 1.690625 -3.0725 1.38125 -3.625 1.0625 C-6.3984957 -0.17827439 -9.00042837 -0.5909675 -12 -1 C-7.85350884 -4.28263884 -4.28080229 -1.93259521 0 0 Z " fill="#2C548D" transform="translate(240,147)"/>
<path d="M0 0 C-6.75 4 -6.75 4 -9 4 C-9 3.34 -9 2.68 -9 2 C-3.375 -1.125 -3.375 -1.125 0 0 Z " fill="#DEE7ED" transform="translate(74,143)"/>
<path d="M0 0 C0.6875 1.6875 0.6875 1.6875 1 4 C-0.3125 6.75 -0.3125 6.75 -2 9 C-2.66 9 -3.32 9 -4 9 C-2.80100302 5.9168649 -1.52299523 2.93720508 0 0 Z " fill="#1C4982" transform="translate(59,55)"/>
<path d="M0 0 C0.99 0 1.98 0 3 0 C1.87548273 2.9719385 0.77706209 5.33440687 -1 8 C-1.66 7.67 -2.32 7.34 -3 7 C-2.01 4.69 -1.02 2.38 0 0 Z " fill="#DCE6EE" transform="translate(201,31)"/>
<path d="M0 0 C1.32 0 2.64 0 4 0 C4.66 1.65 5.32 3.3 6 5 C4.35 5.33 2.7 5.66 1 6 C1.66 5.67 2.32 5.34 3 5 C3 4.34 3 3.68 3 3 C2.34 2.67 1.68 2.34 1 2 C0.67 1.34 0.34 0.68 0 0 Z " fill="#D2D4E4" transform="translate(223,257)"/>
<path d="M0 0 C0.66 0.33 1.32 0.66 2 1 C1.814375 1.61875 1.62875 2.2375 1.4375 2.875 C0.76313824 5.04160178 0.76313824 5.04160178 2 7 C0.68 6.67 -0.64 6.34 -2 6 C-2 4.35 -2 2.7 -2 1 C-1.34 0.67 -0.68 0.34 0 0 Z " fill="#434F9D" transform="translate(162,240)"/>
<path d="M0 0 C0.99 0 1.98 0 3 0 C3 1.65 3 3.3 3 5 C1.68 4.67 0.36 4.34 -1 4 C-0.67 2.68 -0.34 1.36 0 0 Z " fill="#DBDCEA" transform="translate(93,241)"/>
<path d="M0 0 C2.64 0 5.28 0 8 0 C7.01 0.33 6.02 0.66 5 1 C5 1.66 5 2.32 5 3 C3.68 3.33 2.36 3.66 1 4 C0.67 2.68 0.34 1.36 0 0 Z " fill="#BDC0D9" transform="translate(103,229)"/>
<path d="M0 0 C0.33 0.66 0.66 1.32 1 2 C1.99 2.33 2.98 2.66 4 3 C3.67 3.99 3.34 4.98 3 6 C3.66 6.33 4.32 6.66 5 7 C2 7 2 7 0.25 5.75 C-1 4 -1 4 -0.6875 1.8125 C-0.460625 1.214375 -0.23375 0.61625 0 0 Z " fill="#27548C" transform="translate(107,182)"/>
<path d="M0 0 C0.99 0.33 1.98 0.66 3 1 C3.33 3.31 3.66 5.62 4 8 C3.01 8.495 3.01 8.495 2 9 C1.34 6.03 0.68 3.06 0 0 Z " fill="#416498" transform="translate(102,174)"/>
<path d="M0 0 C3.23356015 1.21258505 4.00856305 2.01284458 6 5 C2.64404172 4.40072174 0.62198774 3.15377564 -2 1 C-1.34 0.67 -0.68 0.34 0 0 Z " fill="#D3DDE6" transform="translate(87,160)"/>
<path d="M0 0 C1.98 0.66 3.96 1.32 6 2 C5.67 2.99 5.34 3.98 5 5 C3.02 4.34 1.04 3.68 -1 3 C-0.67 2.01 -0.34 1.02 0 0 Z " fill="#2E578E" transform="translate(227,154)"/>
<path d="M0 0 C-2.38573379 1.89213369 -4.07175348 3.02391783 -7 4 C-7.66 3.34 -8.32 2.68 -9 2 C-3.375 -1.125 -3.375 -1.125 0 0 Z " fill="#2C538B" transform="translate(81,149)"/>
<path d="M0 0 C2.31 0 4.62 0 7 0 C6.67 0.99 6.34 1.98 6 3 C4.02 3 2.04 3 0 3 C0 2.01 0 1.02 0 0 Z " fill="#E2E8EF" transform="translate(238,134)"/>
<path d="M0 0 C1.65 0 3.3 0 5 0 C5.625 1.875 5.625 1.875 6 4 C5.34 4.66 4.68 5.32 4 6 C3.01 5.34 2.02 4.68 1 4 C1.66 3.01 2.32 2.02 3 1 C2.01 0.67 1.02 0.34 0 0 Z " fill="#B7C7DA" transform="translate(128,129)"/>
<path d="M0 0 C2 2 2 2 2.125 5.125 C2.08375 6.07375 2.0425 7.0225 2 8 C-0.50037734 5.82575883 -1.43628586 4.26954202 -2 1 C-1.34 0.67 -0.68 0.34 0 0 Z " fill="#254E89" transform="translate(229,61)"/>
</svg>
